<svg xmlns="http://www.w3.org/2000/svg" xmlns:xlink="http://www.w3.org/1999/xlink" width="41" zoomAndPan="magnify" viewBox="0 0 30.75 30.75" height="41" preserveAspectRatio="xMidYMid meet" version="1.0"><defs><clipPath id="ba94097917"><path d="M 0.847656 0.847656 L 29.863281 0.847656 L 29.863281 29.863281 L 0.847656 29.863281 Z M 0.847656 0.847656 " clip-rule="nonzero"/></clipPath></defs><g clip-path="url(#ba94097917)"><path fill="#4caf50" d="M 29.863281 15.355469 C 29.863281 13.246094 28.664062 11.402344 26.914062 10.472656 C 27.390625 8.652344 26.925781 6.625 25.503906 5.207031 C 24.441406 4.144531 23.042969 3.617188 21.644531 3.617188 C 21.167969 3.617188 20.695312 3.675781 20.234375 3.796875 C 19.304688 2.046875 17.464844 0.847656 15.355469 0.847656 C 13.246094 0.847656 11.402344 2.046875 10.472656 3.796875 C 10.011719 3.675781 9.539062 3.617188 9.066406 3.617188 C 7.664062 3.617188 6.265625 4.144531 5.207031 5.207031 C 3.785156 6.625 3.316406 8.652344 3.796875 10.472656 C 2.046875 11.402344 0.847656 13.246094 0.847656 15.355469 C 0.847656 17.464844 2.046875 19.304688 3.796875 20.234375 C 3.320312 22.058594 3.785156 24.082031 5.207031 25.503906 C 6.265625 26.566406 7.664062 27.09375 9.066406 27.09375 C 9.539062 27.09375 10.011719 27.035156 10.472656 26.914062 C 11.402344 28.664062 13.246094 29.863281 15.355469 29.863281 C 17.464844 29.863281 19.304688 28.664062 20.234375 26.914062 C 20.699219 27.035156 21.171875 27.09375 21.644531 27.09375 C 23.042969 27.09375 24.441406 26.566406 25.503906 25.503906 C 26.925781 24.082031 27.390625 22.058594 26.914062 20.234375 C 28.664062 19.304688 29.863281 17.464844 29.863281 15.355469 Z M 29.863281 15.355469 " fill-opacity="1" fill-rule="nonzero"/></g><path fill="#ffffff" d="M 13.902344 21.757812 L 8.527344 16.378906 L 10.578125 14.328125 L 13.902344 17.65625 L 20.855469 10.703125 L 22.910156 12.753906 Z M 13.902344 21.757812 " fill-opacity="1" fill-rule="nonzero"/></svg>