<svg xmlns="http://www.w3.org/2000/svg" xmlns:xlink="http://www.w3.org/1999/xlink" width="1080" zoomAndPan="magnify" viewBox="0 0 810 809.999993" height="1080" preserveAspectRatio="xMidYMid meet" version="1.0"><defs><clipPath id="882ef14959"><path d="M 124.632812 457 L 685.632812 457 L 685.632812 746.25 L 124.632812 746.25 Z M 124.632812 457 " clip-rule="nonzero"/></clipPath></defs><path fill="#ffcd87" d="M 273.136719 466.679688 C 290.097656 508.4375 364.277344 517.859375 404.855469 517.867188 C 445.425781 517.867188 526.0625 508.617188 543.03125 466.855469 C 542.296875 468.65625 511.992188 460.503906 509.480469 459.804688 C 507.515625 459.257812 505.300781 458.75 502.925781 458.234375 C 489.113281 455.210938 470.085938 451.785156 466.398438 439.203125 C 466.042969 438.042969 465.316406 434.71875 464.410156 430.046875 C 463.316406 424.425781 461.960938 416.859375 460.714844 408.816406 C 459.90625 403.617188 459.144531 398.144531 458.527344 392.9375 C 456.613281 376.550781 456.105469 362.199219 460.136719 362.199219 C 460.121094 362.199219 404.855469 362.199219 404.855469 362.199219 C 404.855469 362.199219 349.59375 362.199219 349.582031 362.199219 C 354.890625 362.199219 351.390625 387.226562 349.3125 408.773438 C 349.3125 408.78125 349.3125 408.78125 349.3125 408.785156 C 348.273438 416.707031 346.613281 424.167969 345.519531 429.789062 C 345.519531 429.804688 345.433594 429.808594 345.433594 429.824219 C 344.5 434.648438 343.703125 438.117188 343.355469 439.308594 C 342.320312 442.851562 340.273438 445.949219 337.582031 448.691406 C 329.0625 457.359375 321.371094 458.222656 308.664062 458.472656 C 306.042969 458.527344 273.875 468.488281 273.136719 466.679688 " fill-opacity="1" fill-rule="nonzero"/><path fill="#f2c789" d="M 345.519531 429.789062 C 345.519531 429.804688 345.433594 429.808594 345.433594 429.824219 C 362.148438 449.511719 381.902344 462.480469 403.417969 462.6875 C 425.277344 462.90625 446.253906 449.921875 464.421875 430.046875 C 463.328125 424.425781 461.960938 416.867188 460.714844 408.828125 C 460.328125 409.214844 459.945312 409.601562 459.566406 409.984375 C 459.179688 410.363281 458.796875 410.742188 458.410156 411.113281 C 458.085938 411.4375 457.773438 411.742188 457.445312 412.054688 C 454.4375 414.9375 451.367188 417.625 448.226562 420.085938 C 447.808594 420.417969 447.386719 420.746094 446.964844 421.066406 C 446.671875 421.289062 446.375 421.511719 446.082031 421.738281 C 445.320312 422.3125 444.550781 422.867188 443.78125 423.402344 C 443.40625 423.664062 443.035156 423.929688 442.660156 424.183594 C 440.820312 425.449219 438.960938 426.644531 437.085938 427.734375 C 436.621094 428.015625 436.160156 428.277344 435.695312 428.53125 C 435.375 428.714844 435.050781 428.902344 434.726562 429.066406 C 434.121094 429.410156 433.511719 429.730469 432.902344 430.035156 C 432.578125 430.21875 432.25 430.371094 431.914062 430.546875 C 430.351562 431.324219 428.773438 432.039062 427.1875 432.6875 C 426.730469 432.878906 426.277344 433.0625 425.820312 433.238281 C 424.988281 433.574219 424.136719 433.886719 423.289062 434.171875 C 422.863281 434.320312 422.417969 434.472656 421.980469 434.613281 C 421.957031 434.617188 421.941406 434.628906 421.921875 434.632812 C 421.582031 434.738281 421.246094 434.839844 420.914062 434.945312 C 420.308594 435.136719 419.699219 435.3125 419.09375 435.472656 C 418.726562 435.578125 418.351562 435.671875 417.984375 435.761719 C 417.628906 435.859375 417.273438 435.941406 416.925781 436.015625 C 416.542969 436.109375 416.179688 436.1875 415.804688 436.265625 C 415.75 436.28125 415.703125 436.292969 415.644531 436.304688 C 415.269531 436.382812 414.886719 436.457031 414.5 436.53125 C 414.371094 436.5625 414.222656 436.589844 414.082031 436.609375 C 413.804688 436.660156 413.511719 436.71875 413.230469 436.753906 C 412.960938 436.808594 412.691406 436.855469 412.421875 436.890625 C 412.324219 436.910156 412.230469 436.925781 412.144531 436.933594 C 411.734375 436.992188 411.332031 437.050781 410.933594 437.097656 C 410.925781 437.097656 410.925781 437.109375 410.917969 437.097656 C 410.914062 437.109375 410.894531 437.109375 410.886719 437.109375 C 410.472656 437.152344 410.054688 437.207031 409.652344 437.242188 C 409.230469 437.300781 408.800781 437.335938 408.378906 437.363281 C 407.980469 437.402344 407.589844 437.238281 407.183594 437.261719 C 407.058594 437.269531 406.917969 437.007812 406.792969 437.007812 L 406.746094 437.007812 C 405.8125 437.007812 404.878906 437.007812 403.945312 437.007812 L 403.414062 437.007812 C 402.953125 437.007812 402.484375 437.007812 402.027344 437.007812 L 401.953125 437.007812 C 401.769531 437.007812 401.578125 437.242188 401.386719 437.226562 C 401.074219 437.214844 400.765625 437.328125 400.464844 437.304688 C 399.332031 437.230469 398.199219 437.199219 397.085938 437.046875 C 396.78125 437.015625 396.496094 437.007812 396.210938 436.960938 C 396.144531 436.949219 396.082031 436.960938 396.027344 436.949219 C 395.960938 436.945312 395.898438 436.949219 395.84375 436.933594 C 395.542969 436.890625 395.242188 436.851562 394.953125 436.800781 C 394.65625 436.753906 394.359375 436.710938 394.070312 436.648438 C 393.730469 436.585938 393.410156 436.527344 393.085938 436.457031 C 392.660156 436.382812 392.253906 436.292969 391.832031 436.199219 C 391.507812 436.128906 391.179688 436.050781 390.855469 435.96875 C 390.496094 435.886719 390.144531 435.800781 389.789062 435.703125 C 389.34375 435.582031 388.90625 435.464844 388.460938 435.339844 C 387.875 435.167969 387.308594 435 386.730469 434.808594 C 386.429688 434.71875 386.121094 434.617188 385.816406 434.515625 C 385.4375 434.390625 385.066406 434.261719 384.691406 434.125 C 384.460938 434.046875 384.230469 433.953125 384 433.871094 C 383 433.503906 382.007812 433.113281 381.03125 432.6875 C 380.449219 432.4375 379.871094 432.195312 379.304688 431.925781 C 378.875 431.726562 378.445312 431.527344 378.019531 431.320312 C 377.589844 431.109375 377.164062 430.902344 376.742188 430.683594 C 375.894531 430.253906 375.042969 429.804688 374.207031 429.332031 C 373.8125 429.113281 373.425781 428.890625 373.039062 428.667969 C 372.152344 428.152344 371.265625 427.625 370.402344 427.0625 C 370.03125 426.828125 369.65625 426.589844 369.289062 426.351562 C 365.957031 424.171875 362.726562 421.722656 359.550781 419.007812 C 359.160156 418.671875 358.769531 418.328125 358.378906 417.988281 C 357.203125 416.957031 356.046875 415.894531 354.902344 414.792969 C 354.558594 414.46875 354.214844 414.128906 353.867188 413.785156 C 353.066406 413.015625 352.28125 412.222656 351.503906 411.398438 C 351.125 411.023438 350.75 410.628906 350.382812 410.238281 C 350.007812 409.839844 349.789062 409.441406 349.414062 409.046875 C 349.332031 408.953125 349.3125 408.855469 349.3125 408.773438 C 349.3125 408.78125 349.3125 408.78125 349.3125 408.785156 C 348.273438 416.707031 346.613281 424.167969 345.519531 429.789062 " fill-opacity="1" fill-rule="nonzero"/><path fill="#ffcd87" d="M 292.246094 257.421875 C 292.195312 262.066406 292.371094 266.917969 292.78125 271.917969 C 292.789062 271.980469 292.789062 272.054688 292.796875 272.113281 C 292.875 273.144531 292.972656 274.1875 293.078125 275.222656 C 293.171875 276.261719 293.289062 277.308594 293.417969 278.367188 C 293.46875 278.878906 293.527344 279.410156 293.589844 279.933594 C 293.617188 280.15625 293.644531 280.390625 293.675781 280.617188 C 293.675781 280.636719 293.675781 280.640625 293.683594 280.660156 C 293.71875 280.992188 293.761719 281.324219 293.816406 281.648438 C 294.097656 283.851562 294.417969 286.070312 294.785156 288.308594 C 294.949219 289.351562 295.125 290.386719 295.308594 291.429688 C 295.328125 291.519531 295.34375 291.601562 295.359375 291.683594 C 295.738281 293.847656 296.160156 296.027344 296.617188 298.222656 C 296.640625 298.386719 296.683594 298.566406 296.714844 298.738281 C 297.171875 300.957031 297.671875 303.179688 298.203125 305.417969 C 298.472656 306.574219 298.746094 307.730469 299.050781 308.886719 C 299.332031 310.046875 299.628906 311.207031 299.941406 312.363281 C 299.941406 312.367188 299.941406 312.378906 299.953125 312.390625 C 300.253906 313.546875 300.5625 314.710938 300.886719 315.867188 C 301.183594 316.933594 301.484375 318.003906 301.796875 319.078125 C 301.835938 319.171875 301.855469 319.265625 301.886719 319.375 C 302.222656 320.511719 302.566406 321.660156 302.917969 322.808594 C 302.929688 322.824219 302.933594 322.851562 302.9375 322.871094 C 304.015625 326.371094 305.167969 329.871094 306.390625 333.367188 C 306.800781 334.523438 307.214844 335.683594 307.632812 336.84375 C 307.96875 337.742188 308.300781 338.640625 308.640625 339.546875 C 309.234375 341.128906 309.84375 342.703125 310.464844 344.265625 C 310.820312 345.148438 311.175781 346.023438 311.53125 346.890625 C 311.617188 347.097656 311.703125 347.304688 311.785156 347.507812 C 312.195312 348.519531 312.621094 349.539062 313.054688 350.539062 C 313.070312 350.5625 313.070312 350.59375 313.097656 350.628906 C 313.5 351.585938 313.917969 352.539062 314.339844 353.484375 C 314.496094 353.859375 314.660156 354.230469 314.824219 354.585938 C 315.238281 355.53125 315.664062 356.457031 316.09375 357.386719 C 316.421875 358.105469 316.757812 358.816406 317.089844 359.523438 C 319.972656 365.640625 323.074219 371.59375 326.378906 377.3125 C 326.898438 378.21875 327.417969 379.101562 327.945312 379.988281 C 328.511719 380.941406 329.09375 381.890625 329.671875 382.832031 C 330.664062 384.453125 331.691406 386.054688 332.730469 387.628906 C 333.671875 389.066406 334.628906 390.488281 335.597656 391.882812 C 336.261719 392.839844 336.941406 393.804688 337.625 394.746094 C 337.960938 395.195312 338.289062 395.652344 338.621094 396.089844 C 340.660156 398.863281 342.761719 401.519531 344.910156 404.082031 C 345.226562 404.464844 345.539062 404.84375 345.875 405.222656 C 346.902344 406.4375 347.957031 407.613281 349.019531 408.773438 C 349.09375 408.855469 349.183594 408.953125 349.265625 409.046875 C 349.640625 409.441406 350.007812 409.839844 350.382812 410.238281 C 350.75 410.628906 351.125 411.023438 351.503906 411.398438 C 352.289062 412.222656 353.066406 413.015625 353.875 413.785156 C 354.214844 414.128906 354.558594 414.46875 354.902344 414.792969 C 356.046875 415.894531 357.210938 416.957031 358.382812 417.988281 C 358.769531 418.328125 359.160156 418.671875 359.550781 419.007812 C 362.726562 421.722656 365.957031 424.171875 369.289062 426.351562 C 369.65625 426.589844 370.035156 426.828125 370.402344 427.0625 C 371.265625 427.625 372.152344 428.152344 373.039062 428.667969 C 373.425781 428.890625 373.8125 429.113281 374.207031 429.332031 C 375.042969 429.804688 375.894531 430.253906 376.746094 430.683594 C 377.164062 430.902344 377.589844 431.109375 378.019531 431.320312 C 378.445312 431.527344 378.875 431.726562 379.304688 431.925781 C 379.875 432.195312 380.449219 432.4375 381.03125 432.6875 C 382.015625 433.113281 383 433.503906 384 433.871094 C 393.753906 437.46875 404.277344 438.441406 414.503906 436.53125 C 414.890625 436.457031 415.269531 436.382812 415.644531 436.304688 C 415.703125 436.292969 415.75 436.28125 415.808594 436.265625 C 416.179688 436.1875 416.546875 436.109375 416.925781 436.015625 C 417.273438 435.941406 417.628906 435.859375 417.984375 435.761719 C 418.351562 435.671875 418.726562 435.578125 419.09375 435.472656 C 419.699219 435.3125 420.308594 435.136719 420.917969 434.945312 C 421.253906 434.839844 421.582031 434.738281 421.921875 434.632812 C 421.941406 434.628906 421.964844 434.617188 421.980469 434.613281 C 422.417969 434.472656 422.863281 434.320312 423.289062 434.171875 C 424.136719 433.886719 424.988281 433.574219 425.824219 433.238281 C 426.277344 433.0625 426.738281 432.878906 427.1875 432.6875 C 428.773438 432.039062 430.351562 431.324219 431.914062 430.546875 C 432.253906 430.371094 432.578125 430.21875 432.902344 430.035156 C 433.511719 429.730469 434.121094 429.410156 434.730469 429.066406 C 435.050781 428.902344 435.378906 428.714844 435.703125 428.53125 C 436.160156 428.277344 436.625 428.015625 437.085938 427.734375 C 438.960938 426.644531 440.820312 425.449219 442.660156 424.183594 C 443.039062 423.929688 443.40625 423.664062 443.78125 423.402344 C 444.550781 422.867188 445.324219 422.3125 446.082031 421.738281 C 446.375 421.511719 446.671875 421.289062 446.964844 421.066406 C 447.386719 420.746094 447.808594 420.417969 448.226562 420.085938 C 451.367188 417.625 454.4375 414.9375 457.445312 412.054688 C 457.773438 411.742188 458.085938 411.4375 458.410156 411.113281 C 458.796875 410.742188 459.179688 410.363281 459.5625 409.984375 C 459.945312 409.601562 460.320312 409.214844 460.714844 408.816406 C 461.046875 408.488281 461.367188 408.152344 461.679688 407.820312 C 462.027344 407.460938 462.367188 407.105469 462.714844 406.742188 C 463.9375 405.445312 465.167969 404.109375 466.363281 402.742188 C 466.738281 402.3125 467.125 401.871094 467.507812 401.421875 C 470.945312 397.449219 474.28125 393.234375 477.480469 388.804688 C 477.832031 388.320312 478.191406 387.832031 478.542969 387.320312 C 479.246094 386.335938 479.949219 385.34375 480.636719 384.324219 C 480.992188 383.820312 481.332031 383.320312 481.675781 382.804688 C 481.992188 382.34375 482.296875 381.875 482.609375 381.414062 C 485.363281 377.269531 488.023438 372.980469 490.550781 368.566406 C 490.863281 368.019531 491.179688 367.480469 491.484375 366.925781 C 492.132812 365.785156 492.78125 364.636719 493.40625 363.476562 C 493.984375 362.421875 494.550781 361.363281 495.121094 360.296875 C 495.707031 359.175781 496.285156 358.058594 496.871094 356.929688 C 497.441406 355.792969 498.011719 354.671875 498.566406 353.53125 C 499.125 352.402344 499.679688 351.261719 500.21875 350.109375 C 500.5 349.542969 500.757812 348.964844 501.035156 348.390625 C 501.304688 347.820312 501.5625 347.246094 501.835938 346.675781 C 502.621094 344.941406 503.394531 343.210938 504.152344 341.460938 C 504.402344 340.890625 504.652344 340.300781 504.902344 339.71875 C 505.148438 339.140625 505.390625 338.558594 505.636719 337.972656 C 506.859375 335.0625 508.015625 332.136719 509.125 329.207031 C 509.570312 328.03125 510.003906 326.867188 510.433594 325.683594 C 510.859375 324.511719 511.273438 323.335938 511.679688 322.164062 C 512.269531 320.472656 512.835938 318.773438 513.386719 317.078125 C 513.589844 316.425781 513.808594 315.777344 514.007812 315.125 C 514.195312 314.542969 514.375 313.949219 514.5625 313.371094 C 514.746094 312.789062 514.925781 312.203125 515.097656 311.609375 C 515.273438 311.03125 515.441406 310.453125 515.609375 309.871094 L 516.113281 308.121094 C 516.613281 306.371094 517.089844 304.628906 517.546875 302.894531 C 518.082031 300.808594 518.601562 298.738281 519.074219 296.683594 C 519.234375 295.996094 519.386719 295.3125 519.542969 294.621094 C 519.695312 293.933594 519.847656 293.25 519.988281 292.566406 C 520.476562 290.289062 520.914062 288.035156 521.308594 285.808594 C 521.394531 285.3125 521.476562 284.8125 521.5625 284.320312 C 521.648438 283.828125 521.722656 283.332031 521.816406 282.835938 C 521.832031 282.722656 521.847656 282.601562 521.863281 282.480469 C 521.957031 281.929688 522.039062 281.378906 522.113281 280.832031 C 522.441406 278.683594 522.722656 276.5625 522.96875 274.46875 C 523.089844 273.355469 523.203125 272.246094 523.308594 271.144531 C 523.675781 267.199219 523.882812 263.371094 523.917969 259.671875 C 524.664062 192.097656 470.257812 136.820312 406.707031 136.191406 C 343.15625 135.574219 292.976562 189.84375 292.246094 257.421875 " fill-opacity="1" fill-rule="nonzero"/><path fill="#ffcd87" d="M 521.800781 282.847656 C 521.640625 283.828125 521.476562 284.8125 521.304688 285.808594 C 521.476562 284.808594 521.640625 283.820312 521.8125 282.835938 C 522.628906 282.316406 523.308594 281.601562 523.898438 280.769531 C 523.828125 277.527344 523.625 274.320312 523.308594 271.144531 C 523.203125 272.246094 523.085938 273.355469 522.964844 274.46875 C 522.71875 276.5625 522.441406 278.683594 522.113281 280.832031 C 522.039062 281.378906 521.949219 281.929688 521.863281 282.480469 C 521.84375 282.601562 521.824219 282.722656 521.800781 282.847656 " fill-opacity="1" fill-rule="nonzero"/><path fill="#ffcd87" d="M 521.304688 285.808594 C 520.90625 288.035156 520.46875 290.296875 519.988281 292.566406 C 520.46875 290.289062 520.914062 288.035156 521.304688 285.808594 " fill-opacity="1" fill-rule="nonzero"/><path fill="#ffcd87" d="M 519.535156 294.621094 C 518.933594 297.359375 518.261719 300.121094 517.546875 302.894531 C 518.269531 300.121094 518.933594 297.359375 519.535156 294.621094 " fill-opacity="1" fill-rule="nonzero"/><path fill="#ffcd87" d="M 513.382812 317.078125 C 512.835938 318.773438 512.265625 320.472656 511.679688 322.164062 C 512.265625 320.472656 512.84375 318.773438 513.382812 317.078125 " fill-opacity="1" fill-rule="nonzero"/><path fill="#ffcd87" d="M 511.679688 322.164062 C 510.863281 324.515625 510.007812 326.867188 509.125 329.207031 C 510.019531 326.867188 510.863281 324.511719 511.679688 322.164062 " fill-opacity="1" fill-rule="nonzero"/><path fill="#ffcd87" d="M 298.195312 305.417969 C 297.671875 303.179688 297.175781 300.949219 296.714844 298.738281 C 297.167969 300.957031 297.671875 303.179688 298.195312 305.417969 " fill-opacity="1" fill-rule="nonzero"/><path fill="#ffcd87" d="M 294.78125 288.308594 C 294.417969 286.070312 294.097656 283.84375 293.808594 281.648438 C 294.097656 283.851562 294.414062 286.070312 294.78125 288.308594 " fill-opacity="1" fill-rule="nonzero"/><path fill="#ffcd87" d="M 293.691406 280.671875 L 293.683594 280.660156 C 293.71875 280.992188 293.761719 281.324219 293.808594 281.648438 C 293.761719 281.324219 293.71875 280.992188 293.691406 280.671875 " fill-opacity="1" fill-rule="nonzero"/><path fill="#ffcd87" d="M 291.097656 278.925781 L 291.097656 278.933594 C 292.136719 279.664062 292.566406 280.246094 293.0625 280.617188 C 293.0625 280.617188 293.121094 280.617188 293.121094 280.625 C 293.136719 280.640625 293.171875 280.652344 293.171875 280.660156 L 293.171875 280.625 C 293.171875 280.394531 293.375 280.167969 293.34375 279.933594 C 293.277344 279.410156 293.34375 278.878906 293.285156 278.367188 C 293.164062 277.308594 293.113281 276.261719 293.011719 275.222656 C 292.90625 274.1875 292.839844 273.144531 292.765625 272.113281 C 292.753906 272.054688 292.148438 271.980469 292.148438 271.917969 C 291.929688 274.230469 291.097656 276.574219 291.097656 278.925781 " fill-opacity="1" fill-rule="nonzero"/><path fill="#303030" d="M 288.945312 242.382812 C 288.945312 256.75 287.59375 251.339844 287.59375 259.464844 C 287.59375 262.808594 287.980469 274.128906 291.097656 278.925781 L 291.097656 278.933594 C 292.136719 279.664062 292.566406 280.246094 293.0625 280.617188 C 293.0625 280.617188 293.367188 280.617188 293.367188 280.625 C 293.386719 280.640625 293.535156 280.652344 293.550781 280.660156 L 293.625 280.671875 C 294.011719 280.957031 294.46875 281.117188 294.898438 281.117188 C 294.898438 281.117188 294.929688 281.117188 298.148438 280.445312 C 300.8125 279.886719 299.722656 273.910156 299.894531 271.542969 C 300.226562 266.8125 299.765625 261.839844 301.261719 257.253906 C 303.167969 251.402344 303.746094 244.972656 305.382812 239 C 307.945312 229.664062 311.207031 220.445312 315.84375 211.84375 C 318.835938 206.292969 321.664062 201.003906 327.164062 197.269531 C 333.425781 193.015625 341.402344 191.917969 348.796875 190.578125 C 361.007812 188.347656 373.5 187.449219 385.890625 186.78125 C 394.136719 186.335938 401.597656 186.105469 408.339844 186.136719 C 415.082031 186.105469 422.558594 186.335938 430.796875 186.78125 C 439.082031 187.226562 447.328125 187.828125 455.558594 188.851562 C 464.746094 189.992188 473.414062 191.441406 482.261719 194.007812 C 495.550781 197.855469 501.410156 211.632812 505.929688 222.914062 C 509.765625 232.46875 511.445312 242.589844 513.144531 252.628906 C 513.960938 257.417969 513.527344 262.328125 514.046875 267.140625 C 514.136719 267.878906 515.777344 283.828125 518.320312 283.828125 C 519.675781 283.828125 520.824219 283.472656 521.800781 282.847656 C 521.808594 282.847656 521.808594 282.835938 521.808594 282.835938 C 522.628906 282.316406 523.308594 281.601562 523.898438 280.769531 C 527.03125 276.253906 527.179688 267.980469 527.179688 264.273438 C 527.179688 251.339844 527.605469 246.433594 528.035156 237.796875 C 528.351562 231.5 528.613281 225.15625 528.480469 218.847656 C 528.195312 205.804688 528.925781 207.398438 528.515625 194.351562 C 528.066406 180.375 526.898438 182.320312 526.898438 167.417969 C 526.898438 155.167969 526.898438 113.257812 475.417969 134.917969 C 467.574219 138.226562 474.675781 107.804688 441.09375 105.136719 C 424.742188 103.847656 386.835938 86 370.445312 85.128906 C 358.960938 84.515625 339.96875 80.964844 329.542969 87.09375 C 300.476562 104.191406 313.992188 104.75 297.125 117.777344 C 279.585938 131.3125 304.960938 135.597656 288.535156 150.261719 C 273.644531 163.578125 288.617188 200.1875 288.214844 218.847656 C 288.164062 221.082031 288.945312 234.578125 288.945312 242.382812 " fill-opacity="1" fill-rule="nonzero"/><path fill="#ffcd87" d="M 518 270.640625 C 519.988281 264.464844 535.757812 240.914062 534.101562 276.902344 C 532.039062 321.886719 509.792969 316.070312 509.792969 316.070312 L 518 270.640625 " fill-opacity="1" fill-rule="nonzero"/><path fill="#ffcd87" d="M 295.585938 268.785156 C 293.601562 262.605469 277.828125 239.058594 279.476562 275.046875 C 281.539062 320.03125 303.792969 314.207031 303.792969 314.207031 L 295.585938 268.785156 " fill-opacity="1" fill-rule="nonzero"/><g clip-path="url(#882ef14959)"><path fill="#485a7e" d="M 604.464844 498.171875 C 587.550781 485.390625 533.109375 457.3125 501.917969 457.980469 C 500.894531 458 500.253906 458.976562 499.894531 459.691406 C 499.894531 459.691406 499.824219 459.863281 499.695312 460.046875 C 496.90625 464.128906 464.566406 509.65625 405.136719 506.558594 C 345.699219 509.65625 313.355469 464.183594 310.570312 460.101562 C 310.4375 459.910156 310.371094 459.8125 310.371094 459.8125 C 310.003906 459.097656 309.367188 458.261719 308.34375 458.238281 C 277.15625 457.570312 222.71875 485.390625 205.800781 498.171875 C 128.910156 556.246094 124.707031 700.3125 124.707031 746.277344 L 685.554688 746.277344 C 685.554688 700.3125 681.355469 556.246094 604.464844 498.171875 " fill-opacity="1" fill-rule="nonzero"/></g></svg>