<svg xmlns="http://www.w3.org/2000/svg" xmlns:xlink="http://www.w3.org/1999/xlink" width="1080" zoomAndPan="magnify" viewBox="0 0 810 809.999993" height="1080" preserveAspectRatio="xMidYMid meet" version="1.0"><defs><clipPath id="8e3832fa5d"><path d="M 71.914062 438 L 737.914062 438 L 737.914062 729 L 71.914062 729 Z M 71.914062 438 " clip-rule="nonzero"/></clipPath><clipPath id="08a1c17e51"><path d="M 71.914062 571 L 737.914062 571 L 737.914062 729 L 71.914062 729 Z M 71.914062 571 " clip-rule="nonzero"/></clipPath></defs><path fill="#fbcb98" d="M 257.246094 299.03125 C 252.871094 294.265625 246.167969 291.960938 242.390625 298.539062 C 236.953125 307.988281 237.523438 320.597656 238.300781 331.054688 C 238.945312 339.496094 239.980469 347.964844 242.183594 356.144531 C 244.097656 363.238281 246.710938 373 253.027344 377.425781 C 254.476562 378.4375 256.445312 379.421875 258.257812 379.808594 C 259.265625 380.015625 265.296875 380.121094 263.25 377.503906 " fill-opacity="1" fill-rule="nonzero"/><path fill="#fbcb98" d="M 551.808594 299.03125 C 556.183594 294.265625 562.886719 291.960938 566.667969 298.539062 C 572.101562 307.988281 571.53125 320.597656 570.753906 331.054688 C 570.109375 339.496094 569.074219 347.964844 566.875 356.144531 C 564.957031 363.238281 562.34375 373 556.027344 377.425781 C 554.578125 378.4375 552.609375 379.421875 550.800781 379.808594 C 549.789062 380.015625 543.757812 380.121094 545.804688 377.503906 " fill-opacity="1" fill-rule="nonzero"/><g clip-path="url(#8e3832fa5d)"><path fill="#fbcb98" d="M 736.3125 728.113281 C 736.804688 727.542969 737.320312 727.027344 737.785156 726.457031 C 717.984375 675.789062 675.871094 635.375 621.59375 618.726562 L 534.492188 586.570312 C 499.472656 575.125 497.632812 553.25 497.632812 516.40625 L 497.632812 438.140625 L 311.964844 438.140625 L 311.964844 516.433594 C 311.964844 553.25 313.542969 572.5625 278.601562 584.058594 L 188.160156 618.804688 C 133.832031 635.375 91.691406 675.816406 71.8125 726.484375 C 72.277344 727.027344 72.796875 727.570312 73.261719 728.113281 Z M 736.3125 728.113281 " fill-opacity="1" fill-rule="nonzero"/></g><g clip-path="url(#08a1c17e51)"><path fill="#5d281b" d="M 736.3125 728.113281 C 736.804688 727.542969 737.320312 727.027344 737.785156 726.457031 C 717.984375 675.789062 675.871094 635.375 621.59375 618.726562 L 534.492188 586.570312 C 526.855469 584.058594 520.851562 581.03125 516.0625 577.484375 C 514.535156 578.390625 512.75 579.683594 510.757812 581.289062 C 448.789062 630.894531 359.800781 627.039062 301.871094 572.769531 C 301.507812 572.433594 301.144531 572.097656 300.785156 571.761719 C 295.867188 576.679688 288.773438 580.691406 278.601562 584.085938 L 188.160156 618.828125 C 133.832031 635.398438 91.691406 675.839844 71.8125 726.507812 C 72.277344 727.050781 72.796875 727.597656 73.261719 728.140625 L 736.3125 728.140625 Z M 736.3125 728.113281 " fill-opacity="1" fill-rule="nonzero"/></g><path fill="#fbcb98" d="M 552.585938 283.082031 C 552.222656 178.222656 487.148438 122.457031 404.191406 122.457031 C 404.140625 122.457031 404.242188 122.457031 404.191406 122.457031 C 404.140625 122.457031 397.925781 115.59375 397.875 115.59375 C 314.917969 115.59375 257.636719 178.222656 257.273438 283.082031 C 257.089844 330.875 258.746094 362.382812 263.613281 397.078125 C 278.730469 504.9375 377.996094 535.175781 404.785156 535.175781 C 437.609375 535.175781 531.152344 504.9375 546.269531 397.078125 C 551.109375 362.382812 552.765625 330.902344 552.585938 283.082031 Z M 552.585938 283.082031 " fill-opacity="1" fill-rule="nonzero"/><path fill="#8e4a33" d="M 552.585938 283.082031 C 552.429688 236.167969 539.460938 195.207031 517.769531 164.21875 C 512.644531 175.972656 507.390625 187.699219 501.878906 199.273438 C 502.265625 231.585938 502.34375 267.519531 523.386719 293.722656 C 533.820312 306.71875 546.269531 316.117188 550.125 333.335938 C 550.851562 336.546875 550.875 340.222656 550.667969 344.054688 C 550.929688 343.71875 551.160156 343.355469 551.394531 342.992188 C 552.328125 325.359375 552.664062 306.125 552.585938 283.082031 Z M 552.585938 283.082031 " fill-opacity="1" fill-rule="nonzero"/><path fill="#8e4a33" d="M 272.804688 316.402344 C 276.789062 304.933594 282.613281 294.136719 291.492188 285.59375 C 300.835938 276.609375 313.128906 270.472656 320.144531 259.574219 C 325.320312 251.546875 327.054688 241.835938 328.015625 232.335938 C 329.800781 214.832031 329.410156 197.097656 326.875 179.675781 C 325.140625 167.738281 325.191406 149.71875 314.242188 142.3125 C 307.953125 138.042969 299.515625 137.808594 292.34375 140.296875 C 285.175781 142.78125 279.066406 147.699219 273.761719 153.164062 C 256.960938 170.457031 246.96875 194.226562 246.347656 218.328125 C 245.726562 242.742188 257.6875 275.496094 257.195312 299.003906 C 256.910156 312.597656 257.246094 326.136719 258.050781 339.703125 C 258.410156 345.839844 258.050781 351.042969 257.402344 356.921875 C 256.859375 361.660156 257.636719 367.820312 259.136719 372.273438 C 268.660156 364.636719 266.203125 341.207031 268.921875 329.710938 C 270.035156 325.230469 271.300781 320.777344 272.804688 316.402344 Z M 272.804688 316.402344 " fill-opacity="1" fill-rule="nonzero"/><path fill="#9f533a" d="M 466.675781 399.875 C 449.722656 392.855469 437.867188 379.394531 422.15625 370.617188 C 403.984375 360.441406 386.253906 368.054688 370.101562 378.253906 C 353.71875 388.609375 337.332031 399.253906 317.195312 399.304688 C 298.09375 399.355469 280.128906 391.019531 266.28125 378.230469 C 263.976562 376.105469 261.800781 373.828125 259.707031 371.496094 C 260.585938 380.921875 261.671875 390.191406 262.992188 399.71875 C 278.109375 507.578125 377.375 537.820312 404.164062 537.820312 C 436.988281 537.820312 530.53125 507.578125 545.648438 399.71875 C 546.269531 395.367188 551.472656 370.097656 551.988281 365.828125 C 529.78125 385.011719 495.457031 411.808594 466.675781 399.875 Z M 421.351562 473.351562 C 421.351562 469.570312 418.296875 466.515625 414.519531 466.515625 L 393.863281 466.515625 C 390.085938 466.515625 387.03125 469.570312 387.03125 473.351562 L 387.03125 473.921875 C 387.03125 478.246094 382.835938 481.300781 378.722656 480.03125 C 364.382812 475.65625 349.367188 466.902344 334.277344 451.808594 C 334.277344 451.808594 389.050781 453.285156 404.21875 405.363281 C 404.21875 405.363281 421.195312 451.371094 476.097656 451.808594 C 476.097656 451.808594 457.539062 470.761719 429.765625 479.433594 C 425.570312 480.730469 421.351562 477.699219 421.351562 473.351562 Z M 421.351562 473.351562 " fill-opacity="1" fill-rule="nonzero"/><path fill="#ffffff" d="M 351.699219 294.472656 L 319.550781 294.472656 C 340.230469 315.160156 360.914062 335.847656 381.59375 356.53125 C 384.054688 353.296875 385.8125 349.464844 386.589844 345.246094 L 389.050781 331.78125 C 376.648438 319.300781 364.199219 306.875 351.699219 294.472656 Z M 351.699219 294.472656 " fill-opacity="0.42" fill-rule="nonzero"/><path fill="#ffffff" d="M 303.140625 296.027344 C 293.742188 299.183594 286.546875 306.847656 283.882812 316.246094 L 334.667969 367.042969 L 360.421875 367.042969 C 364.40625 367.042969 368.238281 366.164062 371.65625 364.558594 Z M 303.140625 296.027344 " fill-opacity="0.42" fill-rule="nonzero"/><path fill="#000000" d="M 360.445312 370.230469 L 312.25 370.230469 C 297.859375 370.230469 285.539062 359.949219 282.949219 345.789062 L 280.128906 330.359375 C 278.34375 320.675781 280.957031 310.757812 287.273438 303.199219 C 293.589844 295.636719 302.855469 291.289062 312.714844 291.289062 L 360.007812 291.289062 C 369.867188 291.289062 379.136719 295.636719 385.449219 303.199219 C 391.765625 310.757812 394.355469 320.675781 392.59375 330.359375 L 389.773438 345.789062 C 387.132812 359.949219 374.8125 370.230469 360.445312 370.230469 Z M 312.691406 297.632812 C 304.71875 297.632812 297.238281 301.128906 292.136719 307.261719 C 287.039062 313.375 284.941406 321.375 286.367188 329.21875 L 289.1875 344.648438 C 291.234375 355.78125 300.914062 363.859375 312.222656 363.859375 L 360.421875 363.859375 C 371.730469 363.859375 381.4375 355.78125 383.457031 344.648438 L 386.277344 329.21875 C 387.703125 321.375 385.605469 313.375 380.507812 307.261719 C 375.40625 301.152344 367.902344 297.632812 359.953125 297.632812 Z M 312.691406 297.632812 " fill-opacity="1" fill-rule="nonzero"/><path fill="#ffffff" d="M 488.546875 294.472656 L 456.398438 294.472656 C 477.082031 315.160156 497.761719 335.847656 518.445312 356.53125 C 520.902344 353.296875 522.664062 349.464844 523.441406 345.246094 L 525.898438 331.78125 C 513.5 319.300781 501.050781 306.875 488.546875 294.472656 Z M 488.546875 294.472656 " fill-opacity="0.42" fill-rule="nonzero"/><path fill="#ffffff" d="M 440.015625 296.027344 C 430.617188 299.183594 423.421875 306.847656 420.757812 316.246094 L 471.542969 367.042969 L 497.296875 367.042969 C 501.28125 367.042969 505.113281 366.164062 508.53125 364.558594 Z M 440.015625 296.027344 " fill-opacity="0.42" fill-rule="nonzero"/><path fill="#000000" d="M 497.296875 370.230469 L 449.101562 370.230469 C 434.707031 370.230469 422.386719 359.949219 419.800781 345.789062 L 416.976562 330.359375 C 415.191406 320.675781 417.804688 310.757812 424.121094 303.199219 C 430.4375 295.636719 439.703125 291.289062 449.566406 291.289062 L 496.855469 291.289062 C 506.71875 291.289062 515.984375 295.636719 522.300781 303.199219 C 528.617188 310.757812 531.203125 320.675781 529.445312 330.359375 L 526.625 345.789062 C 524.007812 359.949219 511.6875 370.230469 497.296875 370.230469 Z M 449.566406 297.632812 C 441.59375 297.632812 434.113281 301.128906 429.015625 307.261719 C 423.914062 313.375 421.816406 321.375 423.242188 329.21875 L 426.0625 344.648438 C 428.109375 355.78125 437.789062 363.859375 449.101562 363.859375 L 497.296875 363.859375 C 508.609375 363.859375 518.3125 355.78125 520.332031 344.648438 L 523.15625 329.21875 C 524.578125 321.375 522.480469 313.375 517.382812 307.261719 C 512.285156 301.152344 504.804688 297.632812 496.832031 297.632812 Z M 449.566406 297.632812 " fill-opacity="1" fill-rule="nonzero"/><path fill="#000000" d="M 389.074219 310.292969 L 422.078125 310.292969 L 422.078125 331.523438 L 389.074219 331.523438 Z M 389.074219 310.292969 " fill-opacity="1" fill-rule="nonzero"/><path fill="#9f533a" d="M 324.625 104.152344 C 303.347656 120.617188 301.300781 149.203125 310.566406 172.867188 C 328.84375 219.496094 385.035156 252.347656 429.867188 268.839844 C 433.128906 270.03125 470.921875 280.3125 470.972656 279.171875 C 471.566406 264.207031 470.816406 251.441406 486.503906 265.085938 C 495.457031 272.878906 505.578125 279.328125 516.398438 284.21875 C 521.808594 286.652344 527.398438 288.75 533.09375 290.355469 C 541.015625 292.558594 541.273438 292.789062 545.699219 286.238281 C 559.496094 265.734375 564.671875 236.632812 565.035156 212.398438 C 565.578125 177.058594 544.25 129.652344 504.128906 124.890625 C 495.457031 123.855469 487.226562 125.539062 478.246094 123.386719 C 476.746094 123.027344 474.855469 121.707031 475.734375 120.4375 C 492.300781 118.652344 508.347656 112.074219 521.421875 101.71875 C 490.695312 104.203125 459.296875 102.910156 428.652344 100.890625 C 396.683594 98.765625 353.40625 81.886719 324.625 104.152344 Z M 324.625 104.152344 " fill-opacity="1" fill-rule="nonzero"/><path fill="#000000" d="M 283.882812 319.433594 C 283.285156 319.433594 282.691406 319.277344 282.171875 318.914062 L 255.539062 301.695312 C 254.0625 300.738281 253.648438 298.769531 254.605469 297.296875 C 255.5625 295.820312 257.503906 295.40625 259.007812 296.363281 L 285.640625 313.582031 C 287.117188 314.539062 287.53125 316.507812 286.574219 317.980469 C 285.953125 318.914062 284.917969 319.433594 283.882812 319.433594 Z M 283.882812 319.433594 " fill-opacity="1" fill-rule="nonzero"/><path fill="#000000" d="M 527.246094 319.433594 C 526.234375 319.433594 525.25 318.964844 524.628906 318.085938 C 523.621094 316.636719 523.984375 314.667969 525.40625 313.65625 L 549.972656 296.441406 C 551.394531 295.429688 553.386719 295.792969 554.398438 297.21875 C 555.40625 298.667969 555.042969 300.636719 553.621094 301.644531 L 529.054688 318.863281 C 528.511719 319.222656 527.867188 319.433594 527.246094 319.433594 Z M 527.246094 319.433594 " fill-opacity="1" fill-rule="nonzero"/></svg>