<svg xmlns="http://www.w3.org/2000/svg" xmlns:xlink="http://www.w3.org/1999/xlink" width="41" zoomAndPan="magnify" viewBox="0 0 30.75 30.75" height="41" preserveAspectRatio="xMidYMid meet" version="1.0"><defs><clipPath id="c42eb5d0fb"><path d="M 0.710938 24.042969 L 29.683594 24.042969 L 29.683594 24.8125 L 0.710938 24.8125 Z M 0.710938 24.042969 " clip-rule="nonzero"/></clipPath><clipPath id="b89a5a44d3"><path d="M 18 20 L 22 20 L 22 24.8125 L 18 24.8125 Z M 18 20 " clip-rule="nonzero"/></clipPath><clipPath id="3ec1fe0a7e"><path d="M 10 20 L 15 20 L 15 24.8125 L 10 24.8125 Z M 10 20 " clip-rule="nonzero"/></clipPath><clipPath id="a702cdae9f"><path d="M 16 20 L 20 20 L 20 24.8125 L 16 24.8125 Z M 16 20 " clip-rule="nonzero"/></clipPath><clipPath id="14364668fe"><path d="M 16 20 L 20 20 L 20 24.8125 L 16 24.8125 Z M 16 20 " clip-rule="nonzero"/></clipPath><clipPath id="622dbf06b3"><path d="M 23 20 L 28 20 L 28 24.8125 L 23 24.8125 Z M 23 20 " clip-rule="nonzero"/></clipPath><clipPath id="aee264a92c"><path d="M 7 9.191406 L 16 9.191406 L 16 20 L 7 20 Z M 7 9.191406 " clip-rule="nonzero"/></clipPath><clipPath id="bf4ef1945f"><path d="M 7 9.191406 L 15 9.191406 L 15 20 L 7 20 Z M 7 9.191406 " clip-rule="nonzero"/></clipPath><clipPath id="b4ce30bbf5"><path d="M 15 9.191406 L 24 9.191406 L 24 20 L 15 20 Z M 15 9.191406 " clip-rule="nonzero"/></clipPath><clipPath id="23df2b61f7"><path d="M 7 9.191406 L 17 9.191406 L 17 20 L 7 20 Z M 7 9.191406 " clip-rule="nonzero"/></clipPath><clipPath id="935c245555"><path d="M 16 9.191406 L 17 9.191406 L 17 20 L 16 20 Z M 16 9.191406 " clip-rule="nonzero"/></clipPath><clipPath id="62b914f737"><path d="M 17 9.191406 L 19 9.191406 L 19 20 L 17 20 Z M 17 9.191406 " clip-rule="nonzero"/></clipPath><clipPath id="350acdcdc6"><path d="M 19 9.191406 L 20 9.191406 L 20 20 L 19 20 Z M 19 9.191406 " clip-rule="nonzero"/></clipPath><clipPath id="60c786789c"><path d="M 20 9.191406 L 22 9.191406 L 22 20 L 20 20 Z M 20 9.191406 " clip-rule="nonzero"/></clipPath><clipPath id="53b114bf1a"><path d="M 22 9.191406 L 23 9.191406 L 23 20 L 22 20 Z M 22 9.191406 " clip-rule="nonzero"/></clipPath><clipPath id="fdd0309a87"><path d="M 4 23 L 6 23 L 6 24.8125 L 4 24.8125 Z M 4 23 " clip-rule="nonzero"/></clipPath><clipPath id="b134b0fbc2"><path d="M 3 23 L 4 23 L 4 24.8125 L 3 24.8125 Z M 3 23 " clip-rule="nonzero"/></clipPath><clipPath id="d624aaae0a"><path d="M 4 23 L 7 23 L 7 24.8125 L 4 24.8125 Z M 4 23 " clip-rule="nonzero"/></clipPath><clipPath id="b2161aecfa"><path d="M 4 24 L 7 24 L 7 24.8125 L 4 24.8125 Z M 4 24 " clip-rule="nonzero"/></clipPath><clipPath id="cc865d580d"><path d="M 3 23 L 5 23 L 5 24.8125 L 3 24.8125 Z M 3 23 " clip-rule="nonzero"/></clipPath><clipPath id="c99cd79896"><path d="M 3 24 L 5 24 L 5 24.8125 L 3 24.8125 Z M 3 24 " clip-rule="nonzero"/></clipPath></defs><g clip-path="url(#c42eb5d0fb)"><path fill="#cec6c6" d="M 0.710938 24.429688 C 0.710938 24.640625 7.199219 24.8125 15.199219 24.8125 C 23.199219 24.8125 29.683594 24.640625 29.683594 24.429688 C 29.683594 24.214844 23.199219 24.042969 15.199219 24.042969 C 7.199219 24.042969 0.710938 24.214844 0.710938 24.429688 " fill-opacity="1" fill-rule="nonzero"/></g><path fill="#34273f" d="M 28.257812 21.589844 L 26.683594 21.589844 C 26.394531 21.589844 26.160156 21.351562 26.160156 21.058594 C 26.160156 20.765625 26.394531 20.527344 26.683594 20.527344 L 28.257812 20.527344 C 28.546875 20.527344 28.78125 20.765625 28.78125 21.058594 C 28.78125 21.351562 28.546875 21.589844 28.257812 21.589844 " fill-opacity="1" fill-rule="nonzero"/><path fill="#34273f" d="M 25.820312 22.480469 L 13.285156 22.480469 L 13.285156 22.160156 L 25.820312 22.160156 L 25.820312 22.480469 " fill-opacity="1" fill-rule="nonzero"/><g clip-path="url(#b89a5a44d3)"><path fill="#34273f" d="M 19.976562 20.210938 C 18.566406 20.210938 18.160156 21.15625 18.160156 22.320312 C 18.160156 23.484375 18.566406 24.429688 19.976562 24.429688 C 21.390625 24.429688 21.792969 23.484375 21.792969 22.320312 C 21.792969 21.15625 21.410156 20.210938 19.976562 20.210938 " fill-opacity="1" fill-rule="nonzero"/></g><g clip-path="url(#3ec1fe0a7e)"><path fill="#34273f" d="M 12.699219 20.210938 C 11.289062 20.210938 10.882812 21.15625 10.882812 22.320312 C 10.882812 23.484375 11.289062 24.429688 12.699219 24.429688 C 14.113281 24.429688 14.515625 23.484375 14.515625 22.320312 C 14.515625 21.15625 14.132812 20.210938 12.699219 20.210938 " fill-opacity="1" fill-rule="nonzero"/></g><path fill="#34273f" d="M 10.882812 19.839844 L 24.054688 19.839844 L 24.054688 21.589844 L 10.882812 21.589844 L 10.882812 19.839844 " fill-opacity="1" fill-rule="nonzero"/><path fill="#34273f" d="M 27.894531 21.589844 L 24.355469 21.589844 L 24.488281 19.214844 L 27.402344 19.214844 L 27.894531 21.589844 " fill-opacity="1" fill-rule="nonzero"/><g clip-path="url(#a702cdae9f)"><path fill="#2a2e38" d="M 17.632812 22.320312 C 17.632812 21.402344 18.007812 20.660156 18.703125 20.660156 C 19.457031 20.660156 19.851562 21.402344 19.851562 22.320312 C 19.851562 23.238281 19.449219 23.980469 18.703125 23.980469 C 18.007812 23.980469 17.632812 23.238281 17.632812 22.320312 Z M 16.335938 22.320312 C 16.335938 23.484375 16.746094 24.429688 18.15625 24.429688 C 19.570312 24.429688 19.972656 23.484375 19.972656 22.320312 C 19.972656 21.15625 19.585938 20.210938 18.15625 20.210938 C 16.746094 20.210938 16.335938 21.15625 16.335938 22.320312 " fill-opacity="1" fill-rule="nonzero"/></g><path fill="#444a4f" d="M 17.632812 22.320312 C 17.632812 23.238281 18.007812 23.980469 18.703125 23.980469 C 19.449219 23.980469 19.847656 23.238281 19.847656 22.320312 C 19.847656 21.402344 19.457031 20.660156 18.703125 20.660156 C 18.007812 20.660156 17.632812 21.402344 17.632812 22.320312 " fill-opacity="1" fill-rule="nonzero"/><path fill="#717a7f" d="M 18.171875 22.902344 C 18.113281 22.785156 18.070312 22.570312 18.070312 22.320312 C 18.070312 22.074219 18.113281 21.855469 18.171875 21.742188 C 18.246094 21.5625 18.355469 21.449219 18.476562 21.449219 C 18.699219 21.449219 18.882812 21.839844 18.882812 22.320312 C 18.882812 22.800781 18.699219 23.195312 18.476562 23.195312 C 18.355469 23.195312 18.246094 23.078125 18.171875 22.902344 Z M 17.953125 22.320312 C 17.953125 22.894531 18.1875 23.359375 18.484375 23.359375 C 18.882812 23.359375 19.046875 22.894531 19.046875 22.320312 C 19.046875 21.746094 18.882812 21.28125 18.484375 21.28125 C 18.1875 21.28125 17.953125 21.746094 17.953125 22.320312 " fill-opacity="1" fill-rule="nonzero"/><path fill="#2a2e38" d="M 18.277344 22.992188 C 18.390625 22.992188 18.484375 22.691406 18.484375 22.320312 C 18.484375 21.949219 18.390625 21.648438 18.277344 21.648438 C 18.238281 21.648438 18.203125 21.683594 18.171875 21.742188 C 18.246094 21.5625 18.355469 21.449219 18.476562 21.449219 C 18.699219 21.449219 18.882812 21.839844 18.882812 22.320312 C 18.882812 22.800781 18.699219 23.195312 18.476562 23.195312 C 18.355469 23.195312 18.246094 23.078125 18.171875 22.902344 C 18.203125 22.957031 18.238281 22.992188 18.277344 22.992188 " fill-opacity="1" fill-rule="nonzero"/><path fill="#717a7f" d="M 18.574219 22.375 C 18.574219 22.75 18.445312 23.128906 18.324219 23.128906 C 18.199219 23.128906 18.070312 22.699219 18.070312 22.320312 C 18.070312 21.945312 18.199219 21.511719 18.324219 21.511719 C 18.445312 21.511719 18.574219 21.996094 18.574219 22.375 " fill-opacity="1" fill-rule="nonzero"/><g clip-path="url(#14364668fe)"><path fill="#34273f" d="M 17.632812 22.320312 C 17.632812 21.402344 18.007812 20.660156 18.703125 20.660156 C 19.457031 20.660156 19.851562 21.402344 19.851562 22.320312 C 19.851562 23.238281 19.449219 23.980469 18.703125 23.980469 C 18.007812 23.980469 17.632812 23.238281 17.632812 22.320312 Z M 16.335938 22.320312 C 16.335938 23.484375 16.746094 24.429688 18.15625 24.429688 C 19.570312 24.429688 19.972656 23.484375 19.972656 22.320312 C 19.972656 21.15625 19.585938 20.210938 18.15625 20.210938 C 16.746094 20.210938 16.335938 21.15625 16.335938 22.320312 " fill-opacity="1" fill-rule="nonzero"/></g><path fill="#56556d" d="M 17.632812 22.320312 C 17.632812 23.238281 18.007812 23.980469 18.703125 23.980469 C 19.449219 23.980469 19.847656 23.238281 19.847656 22.320312 C 19.847656 21.402344 19.457031 20.660156 18.703125 20.660156 C 18.007812 20.660156 17.632812 21.402344 17.632812 22.320312 " fill-opacity="1" fill-rule="nonzero"/><path fill="#99abc1" d="M 18.171875 22.902344 C 18.113281 22.785156 18.070312 22.570312 18.070312 22.320312 C 18.070312 22.074219 18.113281 21.855469 18.171875 21.742188 C 18.246094 21.5625 18.355469 21.449219 18.476562 21.449219 C 18.699219 21.449219 18.882812 21.839844 18.882812 22.320312 C 18.882812 22.800781 18.699219 23.195312 18.476562 23.195312 C 18.355469 23.195312 18.246094 23.078125 18.171875 22.902344 Z M 17.953125 22.320312 C 17.953125 22.894531 18.1875 23.359375 18.484375 23.359375 C 18.882812 23.359375 19.046875 22.894531 19.046875 22.320312 C 19.046875 21.746094 18.882812 21.28125 18.484375 21.28125 C 18.1875 21.28125 17.953125 21.746094 17.953125 22.320312 " fill-opacity="1" fill-rule="nonzero"/><path fill="#56556d" d="M 18.277344 22.992188 C 18.390625 22.992188 18.484375 22.691406 18.484375 22.320312 C 18.484375 21.949219 18.390625 21.648438 18.277344 21.648438 C 18.238281 21.648438 18.203125 21.683594 18.171875 21.742188 C 18.246094 21.5625 18.355469 21.449219 18.476562 21.449219 C 18.699219 21.449219 18.882812 21.839844 18.882812 22.320312 C 18.882812 22.800781 18.699219 23.195312 18.476562 23.195312 C 18.355469 23.195312 18.246094 23.078125 18.171875 22.902344 C 18.203125 22.957031 18.238281 22.992188 18.277344 22.992188 " fill-opacity="1" fill-rule="nonzero"/><path fill="#99abc1" d="M 18.574219 22.375 C 18.574219 22.75 18.445312 23.128906 18.324219 23.128906 C 18.199219 23.128906 18.070312 22.699219 18.070312 22.320312 C 18.070312 21.945312 18.199219 21.511719 18.324219 21.511719 C 18.445312 21.511719 18.574219 21.996094 18.574219 22.375 " fill-opacity="1" fill-rule="nonzero"/><g clip-path="url(#622dbf06b3)"><path fill="#34273f" d="M 24.910156 22.320312 C 24.910156 21.402344 25.285156 20.660156 25.980469 20.660156 C 26.734375 20.660156 27.125 21.402344 27.125 22.320312 C 27.125 23.238281 26.726562 23.980469 25.980469 23.980469 C 25.285156 23.980469 24.910156 23.238281 24.910156 22.320312 Z M 23.613281 22.320312 C 23.613281 23.484375 24.023438 24.429688 25.433594 24.429688 C 26.847656 24.429688 27.25 23.484375 27.25 22.320312 C 27.25 21.15625 26.863281 20.210938 25.433594 20.210938 C 24.023438 20.210938 23.613281 21.15625 23.613281 22.320312 " fill-opacity="1" fill-rule="nonzero"/></g><path fill="#56556d" d="M 24.910156 22.320312 C 24.910156 23.238281 25.285156 23.980469 25.980469 23.980469 C 26.726562 23.980469 27.125 23.238281 27.125 22.320312 C 27.125 21.402344 26.734375 20.660156 25.980469 20.660156 C 25.285156 20.660156 24.910156 21.402344 24.910156 22.320312 " fill-opacity="1" fill-rule="nonzero"/><path fill="#99abc1" d="M 25.449219 22.902344 C 25.390625 22.785156 25.347656 22.570312 25.347656 22.320312 C 25.347656 22.074219 25.390625 21.855469 25.449219 21.742188 C 25.523438 21.5625 25.632812 21.449219 25.753906 21.449219 C 25.976562 21.449219 26.160156 21.839844 26.160156 22.320312 C 26.160156 22.800781 25.976562 23.195312 25.753906 23.195312 C 25.632812 23.195312 25.523438 23.078125 25.449219 22.902344 Z M 25.230469 22.320312 C 25.230469 22.894531 25.464844 23.359375 25.761719 23.359375 C 26.160156 23.359375 26.324219 22.894531 26.324219 22.320312 C 26.324219 21.746094 26.160156 21.28125 25.761719 21.28125 C 25.464844 21.28125 25.230469 21.746094 25.230469 22.320312 " fill-opacity="1" fill-rule="nonzero"/><path fill="#56556d" d="M 25.554688 22.992188 C 25.667969 22.992188 25.761719 22.691406 25.761719 22.320312 C 25.761719 21.949219 25.667969 21.648438 25.554688 21.648438 C 25.515625 21.648438 25.480469 21.683594 25.449219 21.742188 C 25.523438 21.5625 25.632812 21.449219 25.753906 21.449219 C 25.976562 21.449219 26.160156 21.839844 26.160156 22.320312 C 26.160156 22.800781 25.976562 23.195312 25.753906 23.195312 C 25.632812 23.195312 25.523438 23.078125 25.449219 22.902344 C 25.480469 22.957031 25.515625 22.992188 25.554688 22.992188 " fill-opacity="1" fill-rule="nonzero"/><path fill="#99abc1" d="M 25.851562 22.375 C 25.851562 22.75 25.722656 23.128906 25.601562 23.128906 C 25.476562 23.128906 25.347656 22.699219 25.347656 22.320312 C 25.347656 21.945312 25.476562 21.511719 25.601562 21.511719 C 25.722656 21.511719 25.851562 21.996094 25.851562 22.375 " fill-opacity="1" fill-rule="nonzero"/><path fill="#d7edff" d="M 26.371094 13.289062 L 27.152344 16.496094 L 23.425781 16.496094 L 23.425781 13.289062 L 26.371094 13.289062 " fill-opacity="1" fill-rule="nonzero"/><path fill="#808da0" d="M 26.585938 16.042969 L 24.183594 16.042969 L 24.183594 16.496094 L 27.152344 16.496094 C 27.089844 16.230469 26.855469 16.042969 26.585938 16.042969 " fill-opacity="1" fill-rule="nonzero"/><path fill="#808da0" d="M 24.363281 15.382812 C 24.066406 15.382812 23.824219 15.628906 23.824219 15.929688 C 23.824219 16.230469 24.066406 16.476562 24.363281 16.476562 C 24.660156 16.476562 24.898438 16.230469 24.898438 15.929688 C 24.898438 15.628906 24.660156 15.382812 24.363281 15.382812 Z M 24.363281 16.613281 C 23.992188 16.613281 23.691406 16.304688 23.691406 15.929688 C 23.691406 15.554688 23.992188 15.246094 24.363281 15.246094 C 24.734375 15.246094 25.035156 15.554688 25.035156 15.929688 C 25.035156 16.304688 24.734375 16.613281 24.363281 16.613281 " fill-opacity="1" fill-rule="nonzero"/><path fill="#808da0" d="M 26.367188 13.289062 L 23.511719 13.289062 L 23.511719 13.515625 L 26.421875 13.515625 L 26.367188 13.289062 " fill-opacity="1" fill-rule="nonzero"/><path fill="#ff4545" d="M 25.605469 16.054688 C 25.605469 16.296875 25.410156 16.496094 25.171875 16.496094 L 23.414062 16.496094 C 23.175781 16.496094 22.980469 16.296875 22.980469 16.054688 L 22.980469 13.730469 C 22.980469 13.484375 23.175781 13.289062 23.414062 13.289062 L 25.171875 13.289062 C 25.410156 13.289062 25.605469 13.484375 25.605469 13.730469 Z M 27.152344 16.496094 L 26.210938 16.496094 C 25.992188 16.496094 25.816406 16.316406 25.816406 16.09375 L 25.816406 13.6875 C 25.816406 13.46875 25.992188 13.289062 26.210938 13.289062 L 26.542969 13.289062 C 26.542969 12.886719 26.21875 12.558594 25.824219 12.558594 L 22.613281 12.558594 L 22.613281 20.558594 C 22.613281 21.128906 23.066406 21.589844 23.628906 21.589844 L 24.019531 21.589844 C 24.199219 21.589844 24.351562 21.449219 24.375 21.265625 C 24.625 19.085938 27.277344 19.320312 27.542969 20.980469 C 27.570312 21.164062 27.714844 21.296875 27.894531 21.296875 C 28.09375 21.300781 28.253906 21.136719 28.253906 20.9375 C 28.25 18.867188 28.191406 16.496094 27.152344 16.496094 " fill-opacity="1" fill-rule="nonzero"/><path fill="#808da0" d="M 23.902344 14.246094 C 23.953125 14.480469 23.785156 14.703125 23.550781 14.714844 L 22.929688 14.75 C 22.710938 14.761719 22.527344 14.585938 22.527344 14.363281 L 22.527344 14.328125 C 22.527344 14.113281 22.699219 13.941406 22.910156 13.941406 L 23.53125 13.941406 C 23.710938 13.941406 23.867188 14.066406 23.902344 14.246094 " fill-opacity="1" fill-rule="nonzero"/><path fill="#808da0" d="M 22.875 14.890625 L 23.566406 14.558594 C 23.578125 14.558594 23.59375 14.558594 23.605469 14.5625 C 23.984375 14.578125 24.292969 14.878906 24.339844 15.261719 L 24.492188 16.496094 L 22.875 16.496094 L 22.875 14.890625 " fill-opacity="1" fill-rule="nonzero"/><path fill="#56556d" d="M 26.023438 13.289062 C 26.023438 13.386719 25.945312 13.46875 25.847656 13.46875 C 25.75 13.46875 25.667969 13.386719 25.667969 13.289062 C 25.667969 13.191406 25.75 13.109375 25.847656 13.109375 C 25.945312 13.109375 26.023438 13.191406 26.023438 13.289062 " fill-opacity="1" fill-rule="nonzero"/><path fill="#56556d" d="M 26.023438 16.542969 C 26.023438 16.644531 25.945312 16.722656 25.847656 16.722656 C 25.75 16.722656 25.667969 16.644531 25.667969 16.542969 C 25.667969 16.445312 25.75 16.363281 25.847656 16.363281 C 25.945312 16.363281 26.023438 16.445312 26.023438 16.542969 " fill-opacity="1" fill-rule="nonzero"/><path fill="#56556d" d="M 28.097656 16.183594 L 27.957031 16.183594 C 27.734375 16.183594 27.550781 16 27.550781 15.773438 L 27.550781 13.605469 C 27.550781 13.378906 27.734375 13.195312 27.957031 13.195312 L 28.097656 13.195312 C 28.320312 13.195312 28.582031 13.378906 28.582031 13.605469 L 28.582031 15.773438 C 28.582031 16 28.320312 16.183594 28.097656 16.183594 " fill-opacity="1" fill-rule="nonzero"/><path fill="#d7edff" d="M 28.039062 16.042969 L 27.960938 16.042969 C 27.769531 16.042969 27.613281 15.886719 27.613281 15.691406 L 27.613281 13.691406 C 27.613281 13.496094 27.769531 13.335938 27.960938 13.335938 L 28.039062 13.335938 C 28.234375 13.335938 28.386719 13.496094 28.386719 13.691406 L 28.386719 15.691406 C 28.386719 15.886719 28.234375 16.042969 28.039062 16.042969 " fill-opacity="1" fill-rule="nonzero"/><path fill="#56556d" d="M 25.855469 16.542969 C 25.832031 16.542969 25.8125 16.527344 25.808594 16.503906 C 25.800781 16.476562 25.820312 16.453125 25.847656 16.449219 L 28.148438 16.046875 C 28.175781 16.039062 28.199219 16.058594 28.203125 16.085938 C 28.207031 16.109375 28.191406 16.136719 28.164062 16.140625 L 25.863281 16.542969 C 25.859375 16.542969 25.855469 16.542969 25.855469 16.542969 " fill-opacity="1" fill-rule="nonzero"/><path fill="#56556d" d="M 28.15625 13.335938 L 25.855469 13.335938 C 25.828125 13.335938 25.804688 13.316406 25.804688 13.289062 C 25.804688 13.261719 25.828125 13.242188 25.855469 13.242188 L 28.15625 13.242188 C 28.183594 13.242188 28.203125 13.261719 28.203125 13.289062 C 28.203125 13.316406 28.183594 13.335938 28.15625 13.335938 " fill-opacity="1" fill-rule="nonzero"/><path fill="#ffffff" d="M 28.386719 13.71875 L 27.613281 14.125 L 27.613281 13.929688 L 28.351562 13.535156 C 28.378906 13.582031 28.386719 13.648438 28.386719 13.71875 " fill-opacity="1" fill-rule="nonzero"/><path fill="#ffffff" d="M 28.386719 14.023438 L 27.613281 14.429688 L 27.613281 14.234375 L 28.386719 13.820312 L 28.386719 14.023438 " fill-opacity="1" fill-rule="nonzero"/><path fill="#ffffff" d="M 28.386719 14.894531 L 27.613281 15.300781 L 27.613281 15.1875 L 28.386719 14.769531 L 28.386719 14.894531 " fill-opacity="1" fill-rule="nonzero"/><path fill="#ffffff" d="M 28.386719 15.402344 L 27.628906 15.796875 C 27.605469 15.742188 27.613281 15.566406 27.613281 15.410156 L 28.386719 14.996094 L 28.386719 15.402344 " fill-opacity="1" fill-rule="nonzero"/><path fill="#34273f" d="M 16.804688 22.320312 C 16.804688 22.65625 16.382812 22.929688 15.863281 22.929688 C 15.339844 22.929688 14.917969 22.65625 14.917969 22.320312 C 14.917969 21.984375 15.339844 21.710938 15.863281 21.710938 C 16.382812 21.710938 16.804688 21.984375 16.804688 22.320312 " fill-opacity="1" fill-rule="nonzero"/><path fill="#56556d" d="M 16.488281 21.875 L 8.421875 21.875 L 8.421875 20.714844 L 16.488281 20.714844 L 16.488281 21.875 " fill-opacity="1" fill-rule="nonzero"/><path fill="#ff4545" d="M 10.390625 21.511719 L 8.710938 21.511719 L 8.710938 20.976562 L 10.390625 20.976562 L 10.390625 21.511719 " fill-opacity="1" fill-rule="nonzero"/><path fill="#ff4545" d="M 15.757812 21.511719 L 14.082031 21.511719 L 14.082031 20.976562 L 15.757812 20.976562 L 15.757812 21.511719 " fill-opacity="1" fill-rule="nonzero"/><path fill="#808da0" d="M 16.175781 21.875 L 16.804688 21.875 L 16.804688 20.714844 L 16.175781 20.714844 L 16.175781 21.875 " fill-opacity="1" fill-rule="nonzero"/><path fill="#34273f" d="M 11.5 23.453125 L 9.949219 23.453125 C 10.300781 22.925781 10.390625 22.480469 10.390625 21.875 L 11.5 21.875 L 11.5 23.453125 " fill-opacity="1" fill-rule="nonzero"/><path fill="#34273f" d="M 16.804688 23.453125 L 14.917969 23.453125 C 15.277344 23.085938 15.296875 22.691406 15.25 21.875 L 16.804688 21.875 L 16.804688 23.453125 " fill-opacity="1" fill-rule="nonzero"/><g clip-path="url(#aee264a92c)"><path fill="#808da0" d="M 7.371094 19.523438 L 15.683594 19.523438 L 15.683594 9.597656 L 7.371094 9.597656 L 7.371094 19.523438 " fill-opacity="1" fill-rule="nonzero"/></g><g clip-path="url(#bf4ef1945f)"><path fill="#99abc1" d="M 14.394531 19.523438 L 7.371094 19.523438 L 7.371094 9.597656 L 14.394531 16.042969 L 14.394531 19.523438 " fill-opacity="1" fill-rule="nonzero"/></g><path fill="#99abc1" d="M 9.085938 19.160156 C 8.980469 19.160156 8.898438 19.074219 8.898438 18.96875 L 8.898438 10.214844 C 8.898438 10.109375 8.980469 10.023438 9.085938 10.023438 C 9.191406 10.023438 9.273438 10.109375 9.273438 10.214844 L 9.273438 18.96875 C 9.273438 19.074219 9.191406 19.160156 9.085938 19.160156 " fill-opacity="1" fill-rule="nonzero"/><path fill="#808da0" d="M 8.710938 19.160156 C 8.605469 19.160156 8.523438 19.074219 8.523438 18.96875 L 8.523438 10.214844 C 8.523438 10.109375 8.605469 10.023438 8.710938 10.023438 C 8.8125 10.023438 8.898438 10.109375 8.898438 10.214844 L 8.898438 18.96875 C 8.898438 19.074219 8.8125 19.160156 8.710938 19.160156 " fill-opacity="1" fill-rule="nonzero"/><path fill="#99abc1" d="M 10.699219 19.160156 L 10.675781 19.160156 C 10.578125 19.160156 10.496094 19.082031 10.496094 18.980469 L 10.496094 11.324219 C 10.496094 11.226562 10.578125 11.144531 10.675781 11.144531 L 10.699219 11.144531 C 10.796875 11.144531 10.875 11.226562 10.875 11.324219 L 10.875 18.980469 C 10.875 19.082031 10.796875 19.160156 10.699219 19.160156 " fill-opacity="1" fill-rule="nonzero"/><path fill="#808da0" d="M 10.308594 19.160156 C 10.207031 19.160156 10.121094 19.074219 10.121094 18.96875 L 10.121094 10.214844 C 10.121094 10.109375 10.207031 10.023438 10.308594 10.023438 C 10.414062 10.023438 10.496094 10.109375 10.496094 10.214844 L 10.496094 18.96875 C 10.496094 19.074219 10.414062 19.160156 10.308594 19.160156 " fill-opacity="1" fill-rule="nonzero"/><path fill="#99abc1" d="M 12.308594 19.160156 L 12.261719 19.160156 C 12.171875 19.160156 12.097656 19.085938 12.097656 18.992188 L 12.097656 12.300781 C 12.097656 12.207031 12.171875 12.132812 12.261719 12.132812 L 12.308594 12.132812 C 12.398438 12.132812 12.472656 12.207031 12.472656 12.300781 L 12.472656 18.992188 C 12.472656 19.085938 12.398438 19.160156 12.308594 19.160156 " fill-opacity="1" fill-rule="nonzero"/><path fill="#808da0" d="M 11.910156 19.160156 C 11.804688 19.160156 11.722656 19.074219 11.722656 18.96875 L 11.722656 10.214844 C 11.722656 10.109375 11.804688 10.023438 11.910156 10.023438 C 12.011719 10.023438 12.097656 10.109375 12.097656 10.214844 L 12.097656 18.96875 C 12.097656 19.074219 12.011719 19.160156 11.910156 19.160156 " fill-opacity="1" fill-rule="nonzero"/><path fill="#99abc1" d="M 13.851562 19.160156 L 13.816406 19.160156 C 13.75 19.160156 13.695312 19.105469 13.695312 19.039062 L 13.695312 14.226562 C 13.695312 14.160156 13.75 14.105469 13.816406 14.105469 L 13.851562 14.105469 C 13.917969 14.105469 13.96875 14.160156 13.96875 14.226562 L 13.96875 19.039062 C 13.96875 19.105469 13.917969 19.160156 13.851562 19.160156 " fill-opacity="1" fill-rule="nonzero"/><path fill="#808da0" d="M 13.507812 19.160156 C 13.40625 19.160156 13.320312 19.074219 13.320312 18.96875 L 13.320312 10.214844 C 13.320312 10.109375 13.40625 10.023438 13.507812 10.023438 C 13.613281 10.023438 13.695312 10.109375 13.695312 10.214844 L 13.695312 18.96875 C 13.695312 19.074219 13.613281 19.160156 13.507812 19.160156 " fill-opacity="1" fill-rule="nonzero"/><path fill="#a51b1b" d="M 25.210938 13.316406 L 25.183594 13.289062 C 25.421875 13.289062 25.617188 13.484375 25.617188 13.730469 L 25.617188 16.054688 C 25.617188 16.296875 25.421875 16.496094 25.183594 16.496094 L 25.183594 16.480469 C 25.335938 16.351562 25.433594 16.175781 25.433594 15.96875 L 25.433594 13.816406 C 25.433594 13.625 25.351562 13.441406 25.210938 13.316406 " fill-opacity="1" fill-rule="nonzero"/><path fill="#ffffff" d="M 23.828125 14.34375 C 23.796875 14.34375 23.769531 14.328125 23.757812 14.300781 C 23.742188 14.261719 23.757812 14.214844 23.796875 14.199219 L 24.601562 13.832031 C 24.636719 13.816406 24.683594 13.832031 24.699219 13.871094 C 24.71875 13.910156 24.699219 13.957031 24.660156 13.972656 L 23.855469 14.339844 C 23.847656 14.34375 23.835938 14.34375 23.828125 14.34375 " fill-opacity="1" fill-rule="nonzero"/><path fill="#ffffff" d="M 24.195312 14.609375 C 24.164062 14.609375 24.136719 14.59375 24.125 14.566406 C 24.109375 14.527344 24.125 14.480469 24.164062 14.464844 L 24.96875 14.097656 C 25.003906 14.082031 25.050781 14.097656 25.066406 14.136719 C 25.085938 14.175781 25.066406 14.21875 25.03125 14.238281 L 24.226562 14.601562 C 24.214844 14.609375 24.203125 14.609375 24.195312 14.609375 " fill-opacity="1" fill-rule="nonzero"/><path fill="#ffffff" d="M 26.21875 15.902344 C 26.1875 15.902344 26.160156 15.882812 26.144531 15.851562 C 26.128906 15.8125 26.144531 15.761719 26.1875 15.746094 L 26.707031 15.507812 C 26.746094 15.488281 26.792969 15.507812 26.8125 15.550781 C 26.832031 15.589844 26.8125 15.640625 26.773438 15.65625 L 26.25 15.894531 C 26.242188 15.898438 26.230469 15.902344 26.21875 15.902344 " fill-opacity="1" fill-rule="nonzero"/><path fill="#ffffff" d="M 26.136719 15.445312 C 26.105469 15.445312 26.074219 15.425781 26.0625 15.394531 C 26.042969 15.355469 26.0625 15.304688 26.101562 15.289062 L 26.4375 15.132812 C 26.480469 15.117188 26.527344 15.132812 26.546875 15.175781 C 26.5625 15.21875 26.546875 15.265625 26.503906 15.285156 L 26.167969 15.4375 C 26.15625 15.441406 26.148438 15.445312 26.136719 15.445312 " fill-opacity="1" fill-rule="nonzero"/><path fill="#ffffff" d="M 24.011719 15.933594 C 23.980469 15.933594 23.953125 15.914062 23.941406 15.886719 C 23.925781 15.847656 23.941406 15.804688 23.980469 15.785156 L 24.785156 15.421875 C 24.820312 15.402344 24.867188 15.421875 24.882812 15.460938 C 24.902344 15.496094 24.882812 15.542969 24.84375 15.558594 L 24.039062 15.925781 C 24.03125 15.929688 24.019531 15.933594 24.011719 15.933594 " fill-opacity="1" fill-rule="nonzero"/><path fill="#ffffff" d="M 24.378906 16.199219 C 24.347656 16.199219 24.320312 16.179688 24.308594 16.152344 C 24.292969 16.113281 24.308594 16.070312 24.347656 16.050781 L 25.152344 15.6875 C 25.191406 15.667969 25.234375 15.6875 25.25 15.722656 C 25.269531 15.761719 25.25 15.808594 25.214844 15.824219 L 24.410156 16.191406 C 24.398438 16.195312 24.386719 16.199219 24.378906 16.199219 " fill-opacity="1" fill-rule="nonzero"/><path fill="#ffbf80" d="M 15.601562 19.558594 L 10.804688 19.558594 L 10.804688 14.765625 L 15.601562 14.765625 L 15.601562 19.558594 " fill-opacity="1" fill-rule="nonzero"/><path fill="#db995d" d="M 14.507812 19.558594 L 17.703125 19.558594 L 17.703125 14.765625 L 14.507812 14.765625 L 14.507812 19.558594 " fill-opacity="1" fill-rule="nonzero"/><path fill="#db995d" d="M 14.507812 14.765625 L 14.507812 16.957031 L 11.558594 14.765625 L 14.507812 14.765625 " fill-opacity="1" fill-rule="nonzero"/><path fill="#ffbf80" d="M 11.449219 19.558594 L 8.335938 19.558594 L 8.335938 17.144531 L 11.449219 17.144531 L 11.449219 19.558594 " fill-opacity="1" fill-rule="nonzero"/><path fill="#db995d" d="M 10.738281 19.558594 L 12.8125 19.558594 L 12.8125 17.144531 L 10.738281 17.144531 L 10.738281 19.558594 " fill-opacity="1" fill-rule="nonzero"/><path fill="#ffbf80" d="M 15.324219 14.785156 L 13.21875 14.785156 L 13.21875 12.820312 L 15.324219 12.820312 L 15.324219 14.785156 " fill-opacity="1" fill-rule="nonzero"/><path fill="#db995d" d="M 14.84375 14.785156 L 16.246094 14.785156 L 16.246094 12.820312 L 14.84375 12.820312 L 14.84375 14.785156 " fill-opacity="1" fill-rule="nonzero"/><path fill="#db995d" d="M 13.339844 12.820312 L 14.84375 13.804688 L 14.84375 12.820312 L 13.339844 12.820312 " fill-opacity="1" fill-rule="nonzero"/><path fill="#ffd2a9" d="M 14.726562 13.804688 L 14.109375 13.804688 L 14.109375 13.175781 L 14.726562 13.175781 L 14.726562 13.804688 " fill-opacity="1" fill-rule="nonzero"/><path fill="#ffd2a9" d="M 9.398438 19.246094 L 8.644531 19.246094 L 8.644531 18.480469 L 9.398438 18.480469 L 9.398438 19.246094 " fill-opacity="1" fill-rule="nonzero"/><path fill="#ffd2a9" d="M 12.308594 15.609375 L 11.265625 15.609375 L 11.265625 15 L 12.308594 15 L 12.308594 15.609375 " fill-opacity="1" fill-rule="nonzero"/><path fill="#e8c09e" d="M 14.109375 13.175781 L 14.109375 13.324219 L 14.726562 13.726562 L 14.726562 13.175781 L 14.109375 13.175781 " fill-opacity="1" fill-rule="nonzero"/><path fill="#e8c09e" d="M 11.871094 15 L 12.308594 15 L 12.308594 15.324219 L 11.871094 15 " fill-opacity="1" fill-rule="nonzero"/><path fill="#ffbf80" d="M 15.8125 19.558594 L 12.9375 19.558594 L 12.9375 16.636719 L 15.8125 16.636719 L 15.8125 19.558594 " fill-opacity="1" fill-rule="nonzero"/><path fill="#db995d" d="M 15.160156 19.558594 L 17.074219 19.558594 L 17.074219 16.636719 L 15.160156 16.636719 L 15.160156 19.558594 " fill-opacity="1" fill-rule="nonzero"/><path fill="#ffd2a9" d="M 14.851562 17.707031 L 14.117188 17.707031 L 14.117188 16.957031 L 14.851562 16.957031 L 14.851562 17.707031 " fill-opacity="1" fill-rule="nonzero"/><g clip-path="url(#b4ce30bbf5)"><path fill="#bacbdb" d="M 15.683594 19.839844 L 23.617188 19.839844 L 23.617188 9.191406 L 15.683594 9.191406 L 15.683594 19.839844 " fill-opacity="1" fill-rule="nonzero"/></g><g clip-path="url(#23df2b61f7)"><path fill="#bacbdb" d="M 15.652344 19.523438 L 7.40625 19.523438 L 7.40625 9.597656 L 15.652344 9.597656 Z M 7.003906 9.191406 L 7.003906 19.839844 L 16.503906 19.839844 L 16.503906 9.191406 L 7.003906 9.191406 " fill-opacity="1" fill-rule="nonzero"/></g><g clip-path="url(#935c245555)"><path fill="#afc3d3" d="M 16.503906 19.128906 C 16.414062 19.128906 16.335938 19.050781 16.335938 18.957031 L 16.335938 10.160156 C 16.335938 10.066406 16.414062 9.992188 16.503906 9.992188 C 16.597656 9.992188 16.671875 10.066406 16.671875 10.160156 L 16.671875 18.957031 C 16.671875 19.050781 16.597656 19.128906 16.503906 19.128906 " fill-opacity="1" fill-rule="nonzero"/></g><g clip-path="url(#62b914f737)"><path fill="#afc3d3" d="M 18.035156 19.128906 C 17.945312 19.128906 17.871094 19.050781 17.871094 18.957031 L 17.871094 10.160156 C 17.871094 10.066406 17.945312 9.992188 18.035156 9.992188 C 18.128906 9.992188 18.203125 10.066406 18.203125 10.160156 L 18.203125 18.957031 C 18.203125 19.050781 18.128906 19.128906 18.035156 19.128906 " fill-opacity="1" fill-rule="nonzero"/></g><g clip-path="url(#350acdcdc6)"><path fill="#afc3d3" d="M 19.570312 19.128906 C 19.476562 19.128906 19.402344 19.050781 19.402344 18.957031 L 19.402344 10.160156 C 19.402344 10.066406 19.476562 9.992188 19.570312 9.992188 C 19.660156 9.992188 19.734375 10.066406 19.734375 10.160156 L 19.734375 18.957031 C 19.734375 19.050781 19.660156 19.128906 19.570312 19.128906 " fill-opacity="1" fill-rule="nonzero"/></g><g clip-path="url(#60c786789c)"><path fill="#afc3d3" d="M 21.101562 19.128906 C 21.007812 19.128906 20.933594 19.050781 20.933594 18.957031 L 20.933594 10.160156 C 20.933594 10.066406 21.007812 9.992188 21.101562 9.992188 C 21.195312 9.992188 21.269531 10.066406 21.269531 10.160156 L 21.269531 18.957031 C 21.269531 19.050781 21.195312 19.128906 21.101562 19.128906 " fill-opacity="1" fill-rule="nonzero"/></g><g clip-path="url(#53b114bf1a)"><path fill="#afc3d3" d="M 22.632812 19.128906 C 22.542969 19.128906 22.46875 19.050781 22.46875 18.957031 L 22.46875 10.160156 C 22.46875 10.066406 22.542969 9.992188 22.632812 9.992188 C 22.726562 9.992188 22.800781 10.066406 22.800781 10.160156 L 22.800781 18.957031 C 22.800781 19.050781 22.726562 19.128906 22.632812 19.128906 " fill-opacity="1" fill-rule="nonzero"/></g><path fill="#f29586" d="M 6.234375 17.5 L 5.710938 17.789062 L 4.820312 15.851562 L 5.539062 15.84375 L 6.234375 17.5 " fill-opacity="1" fill-rule="nonzero"/><path fill="#b51818" d="M 6.273438 17.125 L 5.441406 17.789062 L 4.820312 15.851562 L 5.515625 15.75 L 6.273438 17.125 " fill-opacity="1" fill-rule="nonzero"/><path fill="#f29586" d="M 6.234375 17.710938 L 7.015625 17.019531 L 6.582031 16.578125 L 5.710938 17.789062 C 5.863281 18.066406 6.125 17.808594 6.234375 17.710938 " fill-opacity="1" fill-rule="nonzero"/><path fill="#b51818" d="M 5.460938 13.753906 C 5.507812 13.757812 5.546875 13.722656 5.550781 13.679688 C 5.554688 13.453125 5.359375 13.355469 5.109375 13.355469 C 4.394531 13.386719 4.425781 13.675781 5.460938 13.753906 " fill-opacity="1" fill-rule="nonzero"/><g clip-path="url(#fdd0309a87)"><path fill="#ffc0a4" d="M 4.757812 23.425781 L 4.746094 23.546875 C 4.738281 23.625 4.707031 23.703125 4.65625 23.765625 L 4.632812 23.792969 C 4.601562 24.148438 4.785156 24.03125 5.042969 23.792969 L 5.085938 23.1875 L 4.757812 23.425781 " fill-opacity="1" fill-rule="nonzero"/></g><g clip-path="url(#b134b0fbc2)"><path fill="#ffc0a4" d="M 3.933594 23.4375 L 3.914062 23.695312 L 3.992188 23.882812 C 4.003906 24.125 3.742188 23.96875 3.566406 23.894531 C 3.625 23.808594 3.640625 23.613281 3.632812 23.375 L 3.933594 23.4375 " fill-opacity="1" fill-rule="nonzero"/></g><path fill="#34273f" d="M 5.566406 18.402344 L 5.382812 21.574219 L 5.167969 23.488281 L 4.582031 23.488281 L 4.601562 21.832031 L 4.660156 21.398438 L 4.375 18.382812 L 5.566406 18.402344 " fill-opacity="1" fill-rule="nonzero"/><path fill="#493959" d="M 4.941406 18.402344 L 4.546875 21.351562 L 4.449219 21.875 L 4.191406 23.488281 L 3.621094 23.488281 L 3.621094 21.332031 L 3.585938 18.402344 L 4.941406 18.402344 " fill-opacity="1" fill-rule="nonzero"/><g clip-path="url(#d624aaae0a)"><path fill="#493959" d="M 4.632812 23.792969 C 4.558594 23.878906 4.496094 24.015625 4.496094 24.230469 C 5.253906 24.230469 5.507812 24.394531 6.007812 24.230469 C 6.007812 24.125 5.910156 24.066406 5.613281 24.066406 C 5.335938 24.066406 5.1875 23.933594 5.042969 23.792969 C 4.804688 23.984375 4.65625 24.015625 4.632812 23.792969 " fill-opacity="1" fill-rule="nonzero"/></g><g clip-path="url(#b2161aecfa)"><path fill="#34273f" d="M 4.550781 24.355469 C 5.289062 24.359375 5.597656 24.417969 5.957031 24.363281 C 5.988281 24.359375 6.007812 24.335938 6.007812 24.304688 L 6.007812 24.230469 C 5.617188 24.328125 5.085938 24.230469 4.496094 24.230469 L 4.496094 24.300781 C 4.496094 24.332031 4.523438 24.355469 4.550781 24.355469 " fill-opacity="1" fill-rule="nonzero"/></g><g clip-path="url(#cc865d580d)"><path fill="#493959" d="M 3.992188 23.882812 C 4.09375 24.039062 4.015625 24.296875 4.015625 24.296875 C 3.429688 24.296875 3.039062 24.414062 3.039062 24.296875 C 3.039062 24.210938 3.042969 24.082031 3.277344 24.082031 C 3.453125 24.082031 3.503906 23.804688 3.65625 23.804688 C 3.882812 23.804688 3.894531 24.167969 3.992188 23.882812 " fill-opacity="1" fill-rule="nonzero"/></g><g clip-path="url(#c99cd79896)"><path fill="#34273f" d="M 3.039062 24.386719 C 3.082031 24.484375 3.617188 24.378906 3.984375 24.386719 C 4.003906 24.386719 4.019531 24.371094 4.019531 24.347656 L 4.019531 24.289062 C 3.839844 24.289062 3.730469 24.273438 3.554688 24.304688 C 3.347656 24.339844 3.09375 24.34375 3.039062 24.289062 L 3.039062 24.386719 " fill-opacity="1" fill-rule="nonzero"/></g><path fill="#ff4545" d="M 5.566406 18.433594 C 5.617188 17.777344 5.417969 17.207031 5.417969 16.632812 C 5.546875 16.191406 5.609375 15.808594 5.453125 15.648438 C 5.414062 15.609375 4.945312 15.234375 4.945312 15.234375 C 4.945312 15.234375 4.277344 15.050781 4.222656 15.027344 C 3.691406 15.199219 3.195312 15.34375 2.988281 15.609375 C 2.988281 16.128906 3.441406 16.457031 3.585938 16.832031 C 3.703125 17.65625 3.585938 17.78125 3.585938 18.402344 L 5.566406 18.433594 " fill-opacity="1" fill-rule="nonzero"/><path fill="#f29586" d="M 4.703125 15.234375 L 4.941406 15.332031 L 4.945312 14.582031 L 4.261719 14.433594 L 4.21875 14.976562 C 4.203125 15.152344 4.53125 15.234375 4.703125 15.234375 " fill-opacity="1" fill-rule="nonzero"/><path fill="#ffc0a4" d="M 3.992188 15.113281 C 4.074219 15.195312 4.582031 15.523438 4.582031 15.523438 C 4.75 15.636719 4.976562 15.496094 4.941406 15.332031 C 4.941406 15.164062 4.246094 15.027344 4.246094 14.648438 L 4.21875 14.882812 C 4.199219 15.003906 4.027344 15.097656 3.992188 15.113281 " fill-opacity="1" fill-rule="nonzero"/><path fill="#ffc0a4" d="M 5.167969 13.707031 L 5.128906 14.683594 C 5.125 14.769531 5.078125 14.84375 5.003906 14.882812 L 4.832031 14.976562 L 4.390625 14.773438 C 4.34375 14.753906 4.3125 14.707031 4.3125 14.65625 L 4.324219 13.546875 L 5.175781 13.546875 L 5.167969 13.707031 " fill-opacity="1" fill-rule="nonzero"/><path fill="#474559" d="M 5.175781 14.132812 L 5.140625 14.710938 C 5.140625 14.761719 5.121094 14.808594 5.085938 14.84375 L 4.996094 14.9375 C 4.941406 14.992188 4.863281 15.027344 4.785156 15.027344 C 4.722656 15.027344 4.660156 15.003906 4.609375 14.964844 L 4.367188 14.78125 C 4.335938 14.757812 4.3125 14.722656 4.304688 14.679688 L 4.226562 14.199219 L 4.3125 14.234375 C 4.355469 14.253906 4.382812 14.296875 4.378906 14.34375 L 4.363281 14.640625 C 4.363281 14.65625 4.371094 14.671875 4.386719 14.683594 L 4.425781 14.707031 C 4.449219 14.722656 4.476562 14.710938 4.484375 14.683594 L 4.496094 14.460938 C 4.496094 14.433594 4.519531 14.414062 4.542969 14.414062 L 4.78125 14.421875 C 4.808594 14.421875 4.914062 14.441406 4.9375 14.453125 L 4.953125 14.472656 C 4.984375 14.515625 5 14.5625 5.007812 14.613281 L 5.03125 14.792969 C 5.03125 14.800781 5.039062 14.804688 5.046875 14.800781 L 5.074219 14.769531 C 5.082031 14.761719 5.089844 14.75 5.089844 14.738281 L 5.117188 14.40625 C 5.117188 14.386719 5.125 14.332031 5.136719 14.320312 L 5.175781 14.132812 " fill-opacity="1" fill-rule="nonzero"/><path fill="#ffc0a4" d="M 4.929688 14.835938 L 4.941406 14.824219 C 4.953125 14.8125 4.960938 14.796875 4.960938 14.78125 L 4.945312 14.582031 C 4.945312 14.570312 4.933594 14.558594 4.925781 14.558594 L 4.574219 14.457031 C 4.554688 14.457031 4.539062 14.46875 4.539062 14.488281 L 4.558594 14.71875 C 4.554688 14.738281 4.582031 14.761719 4.597656 14.777344 L 4.644531 14.824219 C 4.648438 14.828125 4.683594 14.832031 4.691406 14.828125 L 4.742188 14.785156 C 4.789062 14.75 4.855469 14.757812 4.898438 14.796875 L 4.914062 14.835938 C 4.917969 14.839844 4.925781 14.839844 4.929688 14.835938 " fill-opacity="1" fill-rule="nonzero"/><path fill="#f29586" d="M 4.835938 14.617188 C 4.703125 14.683594 4.625 14.613281 4.558594 14.5 C 4.550781 14.484375 4.570312 14.46875 4.585938 14.476562 C 4.664062 14.535156 4.746094 14.574219 4.832031 14.585938 C 4.847656 14.589844 4.851562 14.609375 4.835938 14.617188 " fill-opacity="1" fill-rule="nonzero"/><path fill="#f29586" d="M 4.960938 13.917969 C 4.875 14.007812 4.824219 14.246094 4.929688 14.351562 C 4.964844 14.386719 4.925781 14.394531 4.914062 14.394531 L 4.761719 14.421875 L 4.9375 14.453125 C 4.996094 14.453125 5.039062 14.402344 4.996094 14.355469 C 4.910156 14.269531 4.859375 14.078125 5.15625 13.957031 C 5.15625 13.9375 5.066406 13.925781 4.960938 13.917969 " fill-opacity="1" fill-rule="nonzero"/><path fill="#474559" d="M 5.15625 13.957031 C 5.097656 13.9375 5.039062 13.949219 4.976562 13.988281 C 4.964844 13.996094 4.953125 13.984375 4.953125 13.96875 L 4.953125 13.9375 C 4.953125 13.929688 4.957031 13.921875 4.960938 13.917969 C 5.019531 13.894531 5.082031 13.886719 5.167969 13.917969 C 5.175781 13.921875 5.179688 13.929688 5.179688 13.9375 C 5.179688 13.949219 5.167969 13.960938 5.15625 13.957031 " fill-opacity="1" fill-rule="nonzero"/><path fill="#f29586" d="M 4.824219 13.957031 C 4.824219 14.046875 4.8125 14.265625 4.695312 14.265625 L 4.695312 14.140625 L 4.535156 13.976562 L 4.824219 13.957031 " fill-opacity="1" fill-rule="nonzero"/><path fill="#474559" d="M 4.636719 14.214844 C 4.628906 14.246094 4.648438 14.277344 4.675781 14.285156 C 4.707031 14.292969 4.734375 14.273438 4.742188 14.242188 C 4.75 14.214844 4.734375 14.183594 4.703125 14.175781 C 4.675781 14.167969 4.644531 14.1875 4.636719 14.214844 " fill-opacity="1" fill-rule="nonzero"/><path fill="#474559" d="M 4.984375 14.265625 C 5 14.296875 5.03125 14.308594 5.058594 14.296875 C 5.085938 14.285156 5.097656 14.25 5.085938 14.222656 C 5.074219 14.195312 5.042969 14.179688 5.015625 14.195312 C 4.984375 14.207031 4.972656 14.238281 4.984375 14.265625 " fill-opacity="1" fill-rule="nonzero"/><path fill="#474559" d="M 5.117188 14.25 C 5.109375 14.261719 5.089844 14.234375 5.078125 14.222656 C 5.050781 14.199219 5.046875 14.199219 5.027344 14.191406 C 4.976562 14.171875 4.960938 14.191406 4.957031 14.175781 C 4.949219 14.160156 5.007812 14.144531 5.074219 14.175781 C 5.113281 14.191406 5.121094 14.238281 5.117188 14.25 " fill-opacity="1" fill-rule="nonzero"/><path fill="#474559" d="M 4.769531 14.230469 C 4.761719 14.246094 4.738281 14.214844 4.722656 14.199219 C 4.6875 14.171875 4.679688 14.171875 4.65625 14.160156 C 4.59375 14.136719 4.578125 14.15625 4.570312 14.140625 C 4.5625 14.125 4.628906 14.113281 4.714844 14.148438 C 4.761719 14.171875 4.773438 14.21875 4.769531 14.230469 " fill-opacity="1" fill-rule="nonzero"/><path fill="#474559" d="M 4.527344 13.941406 C 4.617188 13.914062 4.710938 13.90625 4.804688 13.914062 C 4.816406 13.914062 4.824219 13.921875 4.824219 13.929688 L 4.824219 13.957031 C 4.824219 13.96875 4.8125 13.976562 4.796875 13.976562 C 4.714844 13.964844 4.628906 13.964844 4.535156 13.976562 C 4.523438 13.976562 4.511719 13.96875 4.511719 13.957031 C 4.511719 13.953125 4.515625 13.945312 4.527344 13.941406 " fill-opacity="1" fill-rule="nonzero"/><path fill="#474559" d="M 5.140625 14.355469 C 5.171875 14.082031 5.226562 13.980469 5.226562 13.785156 C 5.226562 13.714844 5.214844 13.640625 5.199219 13.566406 C 5.191406 13.511719 5.175781 13.421875 5.15625 13.375 C 5.136719 13.316406 5.109375 13.300781 5.082031 13.253906 C 5.035156 13.183594 5.003906 13.246094 4.945312 13.246094 C 4.84375 13.257812 4.859375 13.261719 4.785156 13.261719 C 4.746094 13.261719 4.714844 13.238281 4.652344 13.253906 C 4.601562 13.28125 4.613281 13.316406 4.578125 13.316406 C 4.382812 13.328125 4.082031 13.421875 4.082031 13.851562 C 4.082031 14.105469 4.078125 14.320312 4.339844 14.320312 C 4.339844 13.851562 4.441406 14 4.441406 13.851562 C 4.441406 13.757812 4.285156 13.71875 4.363281 13.636719 C 4.480469 13.519531 4.753906 13.644531 4.941406 13.664062 C 5.0625 13.628906 5.15625 13.523438 5.15625 13.636719 L 5.140625 14.355469 " fill-opacity="1" fill-rule="nonzero"/><path fill="#ffc0a4" d="M 4.191406 14.046875 C 4.152344 14.046875 4.109375 14.0625 4.117188 14.203125 C 4.117188 14.269531 4.148438 14.328125 4.179688 14.367188 C 4.222656 14.425781 4.1875 14.476562 4.234375 14.476562 C 4.292969 14.476562 4.285156 14.339844 4.285156 14.273438 C 4.285156 14.273438 4.304688 14.046875 4.191406 14.046875 " fill-opacity="1" fill-rule="nonzero"/><path fill="#f29586" d="M 4.230469 14.378906 C 4.238281 14.378906 4.246094 14.371094 4.246094 14.363281 C 4.246094 14.339844 4.234375 14.324219 4.222656 14.316406 C 4.214844 14.304688 4.207031 14.296875 4.207031 14.285156 C 4.207031 14.277344 4.207031 14.277344 4.21875 14.273438 C 4.230469 14.269531 4.25 14.261719 4.25 14.230469 C 4.25 14.171875 4.242188 14.078125 4.191406 14.078125 C 4.136719 14.078125 4.136719 14.144531 4.136719 14.167969 C 4.136719 14.175781 4.144531 14.183594 4.152344 14.183594 C 4.160156 14.183594 4.167969 14.175781 4.167969 14.167969 C 4.167969 14.109375 4.183594 14.109375 4.191406 14.109375 C 4.199219 14.109375 4.214844 14.140625 4.214844 14.230469 C 4.214844 14.238281 4.214844 14.242188 4.207031 14.246094 C 4.195312 14.25 4.175781 14.257812 4.175781 14.285156 C 4.175781 14.3125 4.1875 14.324219 4.199219 14.335938 C 4.207031 14.347656 4.214844 14.351562 4.214844 14.363281 C 4.214844 14.371094 4.222656 14.378906 4.230469 14.378906 " fill-opacity="1" fill-rule="nonzero"/><path fill="#ffbf80" d="M 4.910156 18.066406 L 3.714844 18.855469 L 3.074219 17.246094 L 4.339844 16.488281 L 4.910156 18.066406 " fill-opacity="1" fill-rule="nonzero"/><path fill="#efae73" d="M 4.339844 16.488281 L 2.886719 15.914062 L 1.824219 16.722656 L 3.074219 17.246094 L 4.339844 16.488281 " fill-opacity="1" fill-rule="nonzero"/><path fill="#db995d" d="M 3.714844 18.855469 L 2.398438 18.089844 L 1.824219 16.722656 L 3.074219 17.246094 L 3.714844 18.855469 " fill-opacity="1" fill-rule="nonzero"/><path fill="#ffc0a4" d="M 2.695312 18.496094 L 2.5625 18.253906 L 2.097656 16.859375 C 2.113281 16.777344 2.546875 16.199219 2.617188 16.152344 L 2.71875 16.082031 L 3.1875 16.609375 L 2.703125 16.957031 L 2.925781 18.203125 L 3.167969 18.355469 L 3.398438 18.5625 C 3.433594 18.699219 3.230469 18.753906 3.097656 18.710938 L 2.851562 18.632812 L 2.695312 18.496094 " fill-opacity="1" fill-rule="nonzero"/><path fill="#ff4545" d="M 2.988281 15.609375 L 2.175781 16.722656 C 2.367188 16.570312 2.613281 16.542969 2.878906 16.832031 L 3.804688 16.148438 L 2.988281 15.609375 " fill-opacity="1" fill-rule="nonzero"/><path fill="#ffd2a9" d="M 3.289062 17.355469 L 3.714844 17.136719 L 3.878906 17.496094 L 3.460938 17.753906 L 3.289062 17.355469 " fill-opacity="1" fill-rule="nonzero"/><path fill="#ededed" d="M 6.570312 16.144531 L 6.730469 16.007812 C 6.757812 15.984375 6.796875 15.972656 6.835938 15.972656 L 7.285156 16.007812 C 7.304688 16.011719 7.316406 16.035156 7.296875 16.050781 L 7.128906 16.199219 L 6.570312 16.144531 " fill-opacity="1" fill-rule="nonzero"/><path fill="#efae73" d="M 4.972656 17.355469 C 4.945312 17.328125 4.945312 17.28125 4.972656 17.253906 L 6.207031 16.050781 C 6.21875 16.039062 6.238281 16.03125 6.257812 16.03125 L 7.5 16.113281 C 7.515625 16.117188 7.53125 16.125 7.542969 16.136719 L 7.574219 16.167969 L 4.972656 17.355469 " fill-opacity="1" fill-rule="nonzero"/><path fill="#ffd2a9" d="M 6.167969 17.492188 L 4.972656 17.355469 L 6.277344 16.082031 L 7.574219 16.167969 L 6.28125 17.453125 C 6.25 17.484375 6.207031 17.5 6.167969 17.492188 " fill-opacity="1" fill-rule="nonzero"/><path fill="#b51818" d="M 4.40625 13.179688 C 4.207031 13.246094 4.054688 13.398438 4.074219 13.777344 C 4.085938 14 4.375 13.671875 4.449219 13.59375 C 4.554688 13.480469 5.222656 13.359375 5.222656 13.359375 C 5.222656 13.359375 5.003906 12.984375 4.40625 13.179688 " fill-opacity="1" fill-rule="nonzero"/><path fill="#ff4545" d="M 4.765625 13.777344 C 3.886719 13.558594 4.796875 13.214844 5.320312 13.382812 C 5.066406 13.40625 4.9375 13.550781 4.894531 13.699219 C 4.886719 13.742188 4.804688 13.789062 4.765625 13.777344 " fill-opacity="1" fill-rule="nonzero"/><path fill="#ffc0a4" d="M 7.148438 16.578125 L 6.816406 16.488281 L 6.582031 16.578125 C 6.453125 16.632812 6.355469 16.886719 6.554688 16.9375 L 7.015625 17.019531 C 7.183594 16.902344 7.191406 16.746094 7.148438 16.578125 " fill-opacity="1" fill-rule="nonzero"/></svg>