<svg xmlns="http://www.w3.org/2000/svg" xmlns:xlink="http://www.w3.org/1999/xlink" width="41" zoomAndPan="magnify" viewBox="0 0 30.75 30.75" height="41" preserveAspectRatio="xMidYMid meet" version="1.0"><defs><clipPath id="ca0e9ab5a4"><path d="M 4 3.050781 L 26 3.050781 L 26 25 L 4 25 Z M 4 3.050781 " clip-rule="nonzero"/></clipPath><clipPath id="6507129843"><path d="M 4 3.050781 L 27 3.050781 L 27 25 L 4 25 Z M 4 3.050781 " clip-rule="nonzero"/></clipPath><clipPath id="acbd01115c"><path d="M 4 4 L 26 4 L 26 25.367188 L 4 25.367188 Z M 4 4 " clip-rule="nonzero"/></clipPath><clipPath id="1ef255ea9c"><path d="M 4 3.050781 L 26 3.050781 L 26 25 L 4 25 Z M 4 3.050781 " clip-rule="nonzero"/></clipPath><clipPath id="297d9f80c9"><path d="M 1.109375 6 L 30.503906 6 L 30.503906 24 L 1.109375 24 Z M 1.109375 6 " clip-rule="nonzero"/></clipPath></defs><g clip-path="url(#ca0e9ab5a4)"><path fill="#9aaf23" d="M 23.347656 20.839844 C 22.601562 21.75 21.722656 22.507812 20.710938 23.117188 C 19.714844 23.710938 18.644531 24.125 17.5 24.367188 C 15.253906 24.847656 12.839844 24.644531 10.722656 23.75 C 8.605469 22.851562 6.878906 21.265625 5.773438 19.292969 C 4.679688 17.347656 4.179688 15.0625 4.457031 12.855469 C 4.742188 10.597656 5.851562 8.503906 7.492188 6.894531 C 10.210938 4.222656 14.476562 3.058594 18.191406 4.191406 C 20.390625 4.859375 22.347656 6.257812 23.71875 8.0625 C 25.121094 9.902344 25.878906 12.136719 25.796875 14.433594 C 25.710938 16.75 24.832031 19.039062 23.347656 20.839844 Z M 23.347656 20.839844 " fill-opacity="1" fill-rule="nonzero"/></g><g clip-path="url(#6507129843)"><path fill="#9aaf23" d="M 12.160156 24.3125 C 11.832031 24.207031 11.507812 24.089844 11.191406 23.957031 C 10.128906 23.503906 9.167969 22.890625 8.320312 22.121094 C 7.46875 21.347656 6.765625 20.46875 6.210938 19.476562 C 5.085938 17.472656 4.617188 15.175781 4.890625 13.003906 C 5.171875 10.796875 6.253906 8.667969 7.9375 7.011719 C 9.292969 5.675781 11.027344 4.710938 12.945312 4.214844 C 14.894531 3.710938 16.882812 3.734375 18.699219 4.289062 L 18.785156 4.316406 C 20.933594 4.992188 22.875 6.363281 24.257812 8.179688 C 24.964844 9.105469 25.496094 10.117188 25.859375 11.214844 C 26.222656 12.3125 26.386719 13.4375 26.34375 14.589844 C 26.300781 15.765625 26.066406 16.902344 25.644531 18.003906 C 25.226562 19.105469 24.636719 20.113281 23.882812 21.03125 L 23.839844 20.996094 L 23.882812 21.03125 C 23.144531 21.9375 22.273438 22.695312 21.261719 23.304688 C 20.253906 23.914062 19.167969 24.335938 18.007812 24.574219 C 16.058594 24.992188 14.019531 24.894531 12.160156 24.3125 Z M 18.75 4.425781 L 18.664062 4.398438 C 16.871094 3.851562 14.902344 3.828125 12.972656 4.324219 C 11.078125 4.816406 9.363281 5.773438 8.023438 7.09375 C 6.355469 8.730469 5.285156 10.835938 5.007812 13.019531 C 4.738281 15.167969 5.199219 17.441406 6.3125 19.417969 C 6.863281 20.402344 7.558594 21.273438 8.398438 22.035156 C 9.242188 22.800781 10.1875 23.402344 11.238281 23.851562 C 13.316406 24.730469 15.710938 24.949219 17.980469 24.464844 C 19.117188 24.226562 20.179688 23.816406 21.171875 23.226562 C 22.179688 22.617188 23.050781 21.863281 23.792969 20.960938 C 25.324219 19.097656 26.136719 16.972656 26.226562 14.585938 C 26.265625 13.445312 26.105469 12.332031 25.746094 11.246094 C 25.386719 10.164062 24.859375 9.164062 24.164062 8.25 C 22.792969 6.449219 20.875 5.09375 18.75 4.425781 Z M 18.75 4.425781 " fill-opacity="1" fill-rule="nonzero"/></g><g clip-path="url(#acbd01115c)"><path fill="#9aaf23" d="M 11.75 24.683594 C 11.417969 24.578125 11.097656 24.460938 10.78125 24.324219 C 9.714844 23.875 8.757812 23.261719 7.90625 22.488281 C 7.058594 21.71875 6.355469 20.839844 5.796875 19.84375 C 4.671875 17.84375 4.203125 15.546875 4.480469 13.375 C 4.757812 11.167969 5.839844 9.039062 7.527344 7.378906 C 8.882812 6.046875 10.613281 5.082031 12.53125 4.585938 C 14.484375 4.082031 16.472656 4.105469 18.289062 4.660156 L 18.375 4.6875 C 20.523438 5.363281 22.464844 6.730469 23.847656 8.550781 C 24.550781 9.476562 25.085938 10.488281 25.449219 11.582031 C 25.8125 12.683594 25.972656 13.808594 25.933594 14.960938 C 25.886719 16.136719 25.65625 17.273438 25.234375 18.375 C 24.8125 19.476562 24.226562 20.484375 23.472656 21.402344 C 22.734375 22.308594 21.859375 23.066406 20.851562 23.675781 C 19.839844 24.285156 18.753906 24.707031 17.59375 24.945312 C 15.644531 25.363281 13.605469 25.265625 11.75 24.683594 Z M 18.339844 4.796875 L 18.253906 4.769531 C 16.460938 4.222656 14.492188 4.199219 12.5625 4.695312 C 10.664062 5.1875 8.953125 6.144531 7.613281 7.460938 C 5.945312 9.101562 4.875 11.207031 4.597656 13.386719 C 4.328125 15.539062 4.789062 17.8125 5.902344 19.789062 C 6.453125 20.773438 7.148438 21.644531 7.988281 22.40625 C 8.832031 23.167969 9.777344 23.773438 10.828125 24.21875 C 12.90625 25.101562 15.300781 25.320312 17.570312 24.835938 C 18.71875 24.597656 19.789062 24.179688 20.789062 23.578125 C 21.785156 22.976562 22.648438 22.226562 23.378906 21.332031 L 23.425781 21.367188 L 23.378906 21.332031 C 24.910156 19.46875 25.722656 17.34375 25.816406 14.957031 C 25.855469 13.816406 25.695312 12.703125 25.335938 11.617188 C 24.976562 10.53125 24.449219 9.535156 23.75 8.617188 C 22.382812 6.820312 20.464844 5.464844 18.339844 4.796875 Z M 18.339844 4.796875 " fill-opacity="1" fill-rule="nonzero"/></g><g clip-path="url(#1ef255ea9c)"><path fill="#9aaf23" d="M 11.441406 23.742188 C 11.113281 23.636719 10.789062 23.519531 10.472656 23.386719 C 9.410156 22.933594 8.453125 22.320312 7.601562 21.550781 C 6.753906 20.78125 6.050781 19.898438 5.492188 18.90625 C 4.367188 16.90625 3.898438 14.605469 4.171875 12.433594 C 4.453125 10.226562 5.535156 8.097656 7.222656 6.441406 C 8.578125 5.109375 10.308594 4.140625 12.226562 3.644531 C 14.175781 3.140625 16.167969 3.167969 17.980469 3.71875 L 18.066406 3.746094 C 20.21875 4.421875 22.15625 5.792969 23.539062 7.609375 C 24.246094 8.535156 24.777344 9.546875 25.140625 10.644531 C 25.503906 11.742188 25.667969 12.867188 25.628906 14.019531 C 25.582031 15.195312 25.347656 16.332031 24.929688 17.433594 C 24.507812 18.535156 23.917969 19.546875 23.164062 20.460938 L 23.121094 20.425781 L 23.164062 20.460938 C 22.417969 21.375 21.535156 22.136719 20.515625 22.753906 C 19.511719 23.347656 18.4375 23.765625 17.289062 24.007812 C 15.339844 24.421875 13.300781 24.324219 11.441406 23.742188 Z M 18.03125 3.855469 C 18 3.847656 17.976562 3.839844 17.945312 3.828125 C 16.152344 3.28125 14.1875 3.257812 12.257812 3.757812 C 10.359375 4.246094 8.644531 5.203125 7.304688 6.519531 C 5.636719 8.160156 4.566406 10.265625 4.289062 12.449219 C 4.019531 14.597656 4.480469 16.871094 5.59375 18.847656 C 6.144531 19.832031 6.839844 20.703125 7.679688 21.464844 C 8.519531 22.226562 9.46875 22.832031 10.519531 23.28125 C 12.597656 24.160156 14.992188 24.378906 17.261719 23.894531 C 18.398438 23.65625 19.460938 23.242188 20.453125 22.652344 C 21.460938 22.046875 22.332031 21.292969 23.074219 20.390625 C 24.605469 18.527344 25.417969 16.402344 25.507812 14.015625 C 25.550781 12.875 25.390625 11.761719 25.027344 10.679688 C 24.671875 9.59375 24.140625 8.59375 23.445312 7.679688 C 22.078125 5.878906 20.15625 4.523438 18.03125 3.855469 Z M 18.03125 3.855469 " fill-opacity="1" fill-rule="nonzero"/></g><g clip-path="url(#297d9f80c9)"><path fill="#030d19" d="M 30.6875 16.535156 C 30.667969 16.601562 30.621094 16.636719 30.554688 16.652344 L 24.453125 18.085938 C 20.855469 18.929688 17.261719 19.777344 13.664062 20.621094 C 11.867188 21.042969 10.070312 21.46875 8.269531 21.886719 C 7.359375 22.097656 6.453125 22.3125 5.542969 22.519531 C 5.089844 22.621094 4.632812 22.730469 4.179688 22.828125 C 3.964844 22.875 3.75 22.917969 3.535156 22.960938 L 1.707031 23.445312 C 1.566406 23.484375 1.421875 23.355469 1.464844 23.214844 C 1.714844 22.386719 1.988281 21.5625 2.28125 20.746094 C 2.539062 20.023438 2.8125 19.304688 3.101562 18.589844 C 3.242188 18.242188 3.398438 17.898438 3.523438 17.542969 C 3.648438 17.199219 3.746094 16.820312 3.667969 16.453125 C 3.59375 16.117188 3.394531 15.824219 3.210938 15.539062 C 2.996094 15.210938 2.78125 14.882812 2.570312 14.554688 C 2.363281 14.238281 2.160156 13.917969 1.957031 13.601562 C 1.882812 13.503906 1.808594 13.402344 1.734375 13.308594 L 1.191406 12.621094 C 1.109375 12.519531 1.195312 12.375 1.304688 12.339844 C 3.210938 11.738281 5.214844 11.390625 7.164062 10.917969 C 10.570312 10.085938 13.980469 9.269531 17.394531 8.46875 C 20.808594 7.667969 24.226562 6.878906 27.644531 6.105469 C 28.015625 6.023438 27.476562 8.636719 27.445312 8.828125 C 27.3125 9.582031 27.183594 10.335938 27.050781 11.085938 C 26.992188 11.425781 26.902344 11.796875 27.050781 12.125 C 27.179688 12.417969 27.441406 12.652344 27.660156 12.882812 L 29.253906 14.578125 L 30.039062 15.417969 L 30.453125 15.855469 C 30.582031 15.996094 30.726562 16.125 30.8125 16.289062 C 30.871094 16.394531 30.792969 16.527344 30.6875 16.535156 Z M 30.6875 16.535156 " fill-opacity="1" fill-rule="nonzero"/></g><path fill="#fefff8" d="M 11.429688 17.027344 C 11.25 17.394531 11.039062 17.640625 10.800781 17.773438 C 10.566406 17.90625 10.371094 17.898438 10.21875 17.757812 C 10.074219 17.609375 10.042969 17.316406 10.132812 16.882812 C 10.035156 16.980469 9.953125 17.085938 9.890625 17.207031 C 9.796875 17.378906 9.714844 17.554688 9.640625 17.734375 C 9.554688 17.941406 9.480469 18.136719 9.414062 18.3125 C 9.347656 18.488281 9.292969 18.65625 9.246094 18.8125 C 9.210938 18.929688 9.132812 18.996094 9.011719 19.015625 C 8.898438 19.035156 8.789062 19.023438 8.6875 18.96875 C 8.585938 18.917969 8.53125 18.847656 8.527344 18.753906 C 8.523438 18.621094 8.527344 18.488281 8.53125 18.355469 C 8.539062 18.222656 8.550781 18.089844 8.566406 17.957031 C 8.582031 17.820312 8.601562 17.695312 8.617188 17.585938 C 8.632812 17.472656 8.648438 17.371094 8.671875 17.28125 C 8.691406 17.1875 8.707031 17.121094 8.71875 17.074219 C 8.722656 17.046875 8.730469 17.023438 8.738281 16.996094 L 7.628906 17.402344 C 7.832031 17.519531 7.972656 17.71875 8.058594 18.003906 C 8.144531 18.289062 8.132812 18.585938 8.019531 18.894531 C 7.902344 19.207031 7.691406 19.410156 7.390625 19.511719 C 7.15625 19.570312 6.949219 19.546875 6.761719 19.433594 C 6.578125 19.324219 6.460938 19.144531 6.410156 18.898438 C 6.351562 18.660156 6.398438 18.363281 6.550781 18.007812 C 6.589844 17.9375 6.664062 17.90625 6.765625 17.910156 C 6.863281 17.921875 6.953125 17.953125 7.035156 18.007812 C 7.113281 18.066406 7.136719 18.125 7.105469 18.1875 C 6.980469 18.402344 6.921875 18.597656 6.9375 18.769531 C 6.949219 18.933594 7 19.050781 7.085938 19.121094 C 7.171875 19.183594 7.265625 19.183594 7.371094 19.113281 C 7.480469 19.050781 7.554688 18.933594 7.589844 18.773438 C 7.617188 18.6875 7.628906 18.601562 7.628906 18.515625 C 7.628906 18.425781 7.617188 18.339844 7.601562 18.25 C 7.574219 18.082031 7.503906 17.929688 7.390625 17.796875 C 7.289062 17.679688 7.144531 17.628906 6.957031 17.644531 C 6.894531 17.652344 6.847656 17.628906 6.820312 17.574219 C 6.785156 17.515625 6.765625 17.449219 6.765625 17.378906 C 6.761719 17.34375 6.761719 17.308594 6.769531 17.277344 C 6.777344 17.246094 6.789062 17.214844 6.800781 17.183594 C 6.828125 17.128906 6.875 17.097656 6.949219 17.089844 C 7.273438 17.082031 7.59375 17.03125 7.902344 16.9375 C 8.074219 16.886719 8.230469 16.839844 8.367188 16.792969 C 8.507812 16.746094 8.632812 16.699219 8.746094 16.648438 C 8.859375 16.605469 8.976562 16.605469 9.089844 16.648438 C 9.195312 16.6875 9.285156 16.75 9.355469 16.835938 C 9.421875 16.917969 9.433594 17 9.390625 17.09375 C 9.195312 17.5 9.078125 17.929688 9.046875 18.375 C 9.066406 18.3125 9.097656 18.238281 9.132812 18.144531 C 9.167969 18.027344 9.214844 17.902344 9.265625 17.765625 C 9.320312 17.632812 9.382812 17.484375 9.457031 17.324219 C 9.578125 17.03125 9.738281 16.757812 9.933594 16.503906 C 10.113281 16.269531 10.316406 16.167969 10.535156 16.191406 C 10.664062 16.226562 10.734375 16.3125 10.742188 16.441406 C 10.746094 16.589844 10.734375 16.738281 10.703125 16.882812 C 10.691406 16.9375 10.683594 16.988281 10.675781 17.035156 C 10.671875 17.082031 10.667969 17.128906 10.664062 17.179688 C 10.65625 17.273438 10.667969 17.34375 10.703125 17.398438 C 10.742188 17.441406 10.820312 17.410156 10.933594 17.3125 C 11.0625 17.191406 11.164062 17.050781 11.25 16.898438 C 11.265625 16.859375 11.296875 16.839844 11.34375 16.84375 C 11.378906 16.847656 11.410156 16.863281 11.433594 16.894531 C 11.453125 16.925781 11.453125 16.96875 11.429688 17.027344 Z M 11.429688 17.027344 " fill-opacity="1" fill-rule="nonzero"/><path fill="#fefff8" d="M 13.480469 15.390625 C 13.488281 15.464844 13.496094 15.535156 13.496094 15.609375 C 13.5 15.710938 13.503906 15.828125 13.507812 15.964844 C 13.515625 16.097656 13.515625 16.242188 13.515625 16.390625 C 13.515625 16.542969 13.515625 16.6875 13.511719 16.828125 C 13.597656 16.730469 13.707031 16.605469 13.839844 16.457031 C 13.972656 16.308594 14.109375 16.160156 14.246094 16.007812 C 14.277344 15.972656 14.316406 15.960938 14.363281 15.960938 C 14.410156 15.964844 14.453125 15.976562 14.488281 16.003906 C 14.523438 16.027344 14.550781 16.0625 14.5625 16.101562 C 14.578125 16.144531 14.570312 16.183594 14.539062 16.21875 C 14.496094 16.265625 14.441406 16.328125 14.375 16.40625 C 14.3125 16.488281 14.242188 16.570312 14.164062 16.65625 C 14.089844 16.746094 14.011719 16.832031 13.933594 16.925781 C 13.855469 17.015625 13.785156 17.097656 13.71875 17.171875 C 13.652344 17.246094 13.597656 17.3125 13.550781 17.371094 C 13.523438 17.402344 13.496094 17.4375 13.472656 17.476562 C 13.445312 17.722656 13.414062 17.957031 13.382812 18.183594 C 13.351562 18.40625 13.316406 18.621094 13.273438 18.828125 C 13.230469 19.027344 13.175781 19.222656 13.105469 19.414062 C 13.035156 19.597656 12.949219 19.769531 12.84375 19.933594 C 12.703125 20.148438 12.535156 20.28125 12.347656 20.335938 C 12.15625 20.390625 11.984375 20.378906 11.832031 20.308594 C 11.679688 20.238281 11.570312 20.113281 11.503906 19.933594 C 11.4375 19.753906 11.457031 19.539062 11.5625 19.289062 C 11.660156 19.070312 11.78125 18.859375 11.921875 18.660156 C 12.070312 18.445312 12.21875 18.253906 12.363281 18.078125 C 12.511719 17.90625 12.640625 17.757812 12.75 17.640625 C 12.859375 17.519531 12.917969 17.449219 12.929688 17.425781 C 12.945312 17.335938 12.953125 17.238281 12.960938 17.128906 C 12.96875 17.019531 12.972656 16.910156 12.976562 16.800781 C 12.976562 16.6875 12.980469 16.582031 12.980469 16.480469 C 12.984375 16.382812 12.984375 16.296875 12.980469 16.226562 C 12.910156 16.460938 12.820312 16.6875 12.714844 16.910156 C 12.609375 17.136719 12.484375 17.347656 12.335938 17.546875 C 12.28125 17.617188 12.226562 17.683594 12.164062 17.746094 C 12.105469 17.808594 12.039062 17.863281 11.96875 17.914062 C 11.898438 17.964844 11.828125 18.007812 11.75 18.039062 C 11.675781 18.070312 11.597656 18.085938 11.515625 18.082031 C 11.40625 18.089844 11.316406 18.054688 11.242188 17.980469 C 11.167969 17.902344 11.121094 17.8125 11.101562 17.707031 C 11.074219 17.582031 11.070312 17.453125 11.085938 17.324219 C 11.105469 17.175781 11.140625 17.027344 11.191406 16.886719 C 11.246094 16.734375 11.316406 16.585938 11.402344 16.449219 C 11.488281 16.304688 11.589844 16.175781 11.710938 16.0625 C 11.847656 15.933594 11.996094 15.871094 12.152344 15.867188 C 12.308594 15.867188 12.46875 15.917969 12.632812 16.027344 C 12.652344 15.980469 12.671875 15.933594 12.683594 15.886719 C 12.707031 15.824219 12.726562 15.757812 12.75 15.6875 C 12.769531 15.613281 12.789062 15.542969 12.8125 15.476562 C 12.828125 15.417969 12.847656 15.367188 12.871094 15.3125 C 12.902344 15.261719 12.945312 15.230469 13.003906 15.21875 C 13.074219 15.199219 13.140625 15.199219 13.207031 15.207031 C 13.273438 15.21875 13.335938 15.238281 13.394531 15.273438 C 13.445312 15.296875 13.472656 15.335938 13.480469 15.390625 Z M 11.90625 17.289062 C 11.96875 17.214844 12.023438 17.132812 12.074219 17.050781 C 12.136719 16.953125 12.191406 16.855469 12.242188 16.757812 C 12.292969 16.65625 12.339844 16.566406 12.378906 16.480469 C 12.410156 16.421875 12.429688 16.359375 12.445312 16.296875 C 12.449219 16.269531 12.429688 16.246094 12.386719 16.234375 C 12.347656 16.222656 12.292969 16.234375 12.222656 16.269531 C 12.136719 16.324219 12.058594 16.386719 11.996094 16.464844 C 11.910156 16.554688 11.828125 16.6875 11.753906 16.863281 C 11.730469 16.914062 11.710938 16.960938 11.695312 17.011719 C 11.675781 17.074219 11.660156 17.136719 11.648438 17.199219 C 11.632812 17.253906 11.625 17.3125 11.621094 17.371094 C 11.613281 17.40625 11.621094 17.441406 11.640625 17.476562 C 11.660156 17.496094 11.6875 17.492188 11.726562 17.46875 C 11.769531 17.445312 11.828125 17.382812 11.90625 17.289062 Z M 12.867188 18.085938 C 12.804688 18.164062 12.734375 18.25 12.664062 18.339844 C 12.59375 18.433594 12.523438 18.527344 12.453125 18.625 C 12.382812 18.722656 12.316406 18.816406 12.253906 18.910156 C 12.191406 19 12.136719 19.085938 12.089844 19.160156 C 11.984375 19.335938 11.925781 19.484375 11.910156 19.605469 C 11.890625 19.726562 11.898438 19.8125 11.933594 19.859375 C 11.96875 19.90625 12.023438 19.90625 12.097656 19.867188 C 12.171875 19.828125 12.25 19.738281 12.335938 19.589844 C 12.402344 19.472656 12.460938 19.351562 12.511719 19.230469 C 12.566406 19.101562 12.617188 18.96875 12.660156 18.839844 C 12.707031 18.707031 12.75 18.574219 12.785156 18.449219 C 12.820312 18.316406 12.847656 18.195312 12.867188 18.085938 Z M 12.867188 18.085938 " fill-opacity="1" fill-rule="nonzero"/><path fill="#fefff8" d="M 15.820312 15.828125 C 15.75 15.957031 15.675781 16.113281 15.597656 16.296875 C 15.515625 16.480469 15.429688 16.65625 15.328125 16.832031 C 15.238281 16.992188 15.125 17.140625 14.988281 17.269531 C 14.867188 17.390625 14.714844 17.449219 14.539062 17.445312 C 14.433594 17.453125 14.339844 17.417969 14.261719 17.34375 C 14.1875 17.269531 14.140625 17.179688 14.113281 17.078125 C 14.085938 16.953125 14.078125 16.828125 14.09375 16.703125 C 14.105469 16.558594 14.136719 16.414062 14.183594 16.273438 C 14.230469 16.125 14.292969 15.984375 14.375 15.851562 C 14.453125 15.71875 14.546875 15.597656 14.660156 15.488281 C 14.785156 15.359375 14.929688 15.292969 15.09375 15.289062 C 15.257812 15.28125 15.421875 15.332031 15.585938 15.433594 C 15.601562 15.398438 15.621094 15.355469 15.644531 15.304688 C 15.664062 15.253906 15.6875 15.203125 15.710938 15.144531 C 15.734375 15.089844 15.757812 15.039062 15.78125 14.984375 C 15.800781 14.941406 15.824219 14.902344 15.851562 14.863281 C 15.886719 14.808594 15.933594 14.773438 16 14.757812 C 16.0625 14.746094 16.121094 14.746094 16.183594 14.761719 C 16.242188 14.777344 16.292969 14.808594 16.332031 14.855469 C 16.375 14.90625 16.386719 14.964844 16.378906 15.03125 C 16.328125 15.457031 16.316406 15.777344 16.335938 15.984375 C 16.359375 16.195312 16.40625 16.304688 16.484375 16.320312 C 16.5625 16.332031 16.671875 16.25 16.808594 16.074219 C 16.945312 15.898438 17.105469 15.644531 17.289062 15.304688 C 17.328125 15.222656 17.390625 15.203125 17.472656 15.253906 C 17.503906 15.273438 17.527344 15.300781 17.539062 15.335938 C 17.550781 15.382812 17.546875 15.425781 17.527344 15.472656 C 17.332031 15.976562 17.136719 16.328125 16.941406 16.53125 C 16.746094 16.730469 16.539062 16.816406 16.316406 16.78125 C 16.175781 16.761719 16.0625 16.679688 15.972656 16.539062 C 15.882812 16.394531 15.832031 16.160156 15.820312 15.828125 Z M 14.898438 16.667969 C 14.957031 16.59375 15.011719 16.515625 15.058594 16.433594 C 15.113281 16.34375 15.167969 16.246094 15.21875 16.152344 C 15.269531 16.058594 15.3125 15.96875 15.34375 15.882812 C 15.371094 15.824219 15.390625 15.765625 15.40625 15.703125 C 15.410156 15.671875 15.390625 15.652344 15.347656 15.644531 C 15.304688 15.632812 15.25 15.644531 15.183594 15.679688 C 15.097656 15.730469 15.023438 15.792969 14.960938 15.867188 C 14.882812 15.957031 14.804688 16.089844 14.730469 16.261719 C 14.71875 16.296875 14.699219 16.347656 14.679688 16.40625 C 14.660156 16.464844 14.644531 16.523438 14.632812 16.585938 C 14.625 16.640625 14.617188 16.695312 14.617188 16.75 C 14.617188 16.796875 14.621094 16.832031 14.636719 16.851562 C 14.65625 16.867188 14.683594 16.867188 14.726562 16.839844 C 14.769531 16.816406 14.824219 16.757812 14.898438 16.667969 Z M 14.898438 16.667969 " fill-opacity="1" fill-rule="nonzero"/><path fill="#fefff8" d="M 19.109375 16.023438 C 18.976562 16.003906 18.882812 15.9375 18.824219 15.820312 C 18.761719 15.695312 18.722656 15.5625 18.710938 15.421875 C 18.695312 15.269531 18.695312 15.117188 18.703125 14.964844 C 18.714844 14.808594 18.722656 14.679688 18.730469 14.582031 C 18.648438 14.664062 18.582031 14.761719 18.535156 14.867188 C 18.46875 15 18.414062 15.136719 18.367188 15.277344 C 18.316406 15.429688 18.265625 15.585938 18.21875 15.75 C 18.167969 15.914062 18.117188 16.074219 18.066406 16.230469 C 18.023438 16.363281 17.953125 16.484375 17.863281 16.589844 C 17.777344 16.6875 17.675781 16.730469 17.5625 16.71875 C 17.476562 16.707031 17.414062 16.664062 17.371094 16.59375 C 17.316406 16.503906 17.277344 16.40625 17.257812 16.304688 C 17.226562 16.175781 17.210938 16.046875 17.203125 15.914062 C 17.191406 15.777344 17.191406 15.640625 17.199219 15.503906 C 17.203125 15.378906 17.21875 15.257812 17.234375 15.132812 C 17.246094 15.046875 17.269531 14.957031 17.304688 14.875 C 17.332031 14.808594 17.386719 14.777344 17.460938 14.773438 C 17.613281 14.761719 17.746094 14.808594 17.859375 14.914062 C 17.90625 14.960938 17.917969 15.007812 17.898438 15.046875 C 17.867188 15.121094 17.84375 15.195312 17.832031 15.269531 C 17.8125 15.367188 17.796875 15.464844 17.78125 15.566406 C 17.769531 15.667969 17.757812 15.765625 17.75 15.855469 C 17.742188 15.917969 17.738281 15.984375 17.742188 16.046875 C 17.773438 15.96875 17.8125 15.859375 17.855469 15.71875 C 17.898438 15.578125 17.949219 15.425781 18.007812 15.265625 C 18.0625 15.105469 18.128906 14.941406 18.195312 14.78125 C 18.257812 14.628906 18.335938 14.488281 18.429688 14.351562 C 18.503906 14.238281 18.597656 14.148438 18.714844 14.074219 C 18.820312 14.007812 18.933594 13.996094 19.054688 14.039062 C 19.148438 14.066406 19.210938 14.125 19.242188 14.21875 C 19.28125 14.320312 19.304688 14.429688 19.3125 14.539062 C 19.320312 14.664062 19.320312 14.789062 19.3125 14.914062 C 19.304688 15.042969 19.300781 15.152344 19.304688 15.25 C 19.304688 15.324219 19.316406 15.394531 19.34375 15.460938 C 19.367188 15.507812 19.410156 15.507812 19.480469 15.464844 C 19.546875 15.417969 19.648438 15.320312 19.773438 15.167969 C 19.902344 15.015625 20.070312 14.789062 20.277344 14.488281 C 20.300781 14.457031 20.332031 14.445312 20.367188 14.453125 C 20.410156 14.453125 20.445312 14.464844 20.476562 14.488281 C 20.511719 14.511719 20.535156 14.539062 20.550781 14.578125 C 20.566406 14.617188 20.5625 14.65625 20.53125 14.6875 C 20.496094 14.734375 20.449219 14.800781 20.390625 14.890625 C 20.335938 14.980469 20.269531 15.074219 20.199219 15.179688 C 20.128906 15.28125 20.050781 15.386719 19.96875 15.492188 C 19.886719 15.59375 19.796875 15.691406 19.695312 15.777344 C 19.609375 15.859375 19.515625 15.921875 19.410156 15.972656 C 19.3125 16.019531 19.214844 16.035156 19.109375 16.023438 Z M 19.109375 16.023438 " fill-opacity="1" fill-rule="nonzero"/><path fill="#fefff8" d="M 22.003906 14.101562 C 22.027344 14.078125 22.058594 14.070312 22.089844 14.074219 C 22.125 14.078125 22.160156 14.085938 22.191406 14.101562 C 22.222656 14.117188 22.246094 14.140625 22.265625 14.171875 C 22.28125 14.199219 22.285156 14.226562 22.269531 14.257812 C 22.230469 14.328125 22.195312 14.402344 22.164062 14.476562 C 22.125 14.578125 22.074219 14.683594 22.011719 14.800781 C 21.949219 14.917969 21.882812 15.039062 21.804688 15.160156 C 21.730469 15.28125 21.644531 15.390625 21.542969 15.492188 C 21.449219 15.585938 21.339844 15.667969 21.222656 15.730469 C 21.101562 15.792969 20.976562 15.816406 20.839844 15.808594 C 20.699219 15.800781 20.582031 15.746094 20.492188 15.640625 C 20.398438 15.527344 20.332031 15.398438 20.300781 15.257812 C 20.261719 15.09375 20.25 14.925781 20.265625 14.757812 C 20.277344 14.578125 20.316406 14.398438 20.371094 14.226562 C 20.390625 14.167969 20.4375 14.132812 20.511719 14.121094 C 20.585938 14.109375 20.660156 14.109375 20.734375 14.128906 C 20.804688 14.144531 20.867188 14.175781 20.921875 14.226562 C 20.976562 14.269531 20.992188 14.324219 20.96875 14.390625 C 20.925781 14.523438 20.894531 14.660156 20.875 14.800781 C 20.863281 14.898438 20.863281 15 20.875 15.101562 C 20.882812 15.167969 20.902344 15.230469 20.9375 15.289062 C 20.964844 15.335938 21 15.351562 21.039062 15.347656 C 21.101562 15.339844 21.171875 15.300781 21.253906 15.222656 C 21.351562 15.136719 21.4375 15.039062 21.511719 14.933594 C 21.601562 14.816406 21.691406 14.683594 21.777344 14.539062 C 21.863281 14.398438 21.941406 14.253906 22.003906 14.101562 Z M 21.175781 13.1875 C 21.160156 13.226562 21.140625 13.285156 21.113281 13.359375 C 21.085938 13.4375 21.054688 13.507812 21.011719 13.582031 C 20.976562 13.648438 20.933594 13.707031 20.878906 13.765625 C 20.832031 13.8125 20.78125 13.832031 20.726562 13.820312 C 20.667969 13.808594 20.625 13.765625 20.597656 13.699219 C 20.566406 13.621094 20.550781 13.542969 20.542969 13.464844 C 20.535156 13.378906 20.535156 13.292969 20.542969 13.207031 C 20.546875 13.140625 20.558594 13.078125 20.570312 13.015625 C 20.59375 12.949219 20.636719 12.914062 20.707031 12.90625 C 20.78125 12.890625 20.855469 12.894531 20.929688 12.914062 C 21.003906 12.929688 21.070312 12.964844 21.125 13.011719 C 21.1875 13.058594 21.203125 13.117188 21.175781 13.1875 Z M 21.175781 13.1875 " fill-opacity="1" fill-rule="nonzero"/><path fill="#fefff8" d="M 24.039062 13.5625 C 24.0625 13.539062 24.089844 13.527344 24.125 13.53125 C 24.160156 13.53125 24.191406 13.542969 24.222656 13.558594 C 24.25 13.574219 24.273438 13.597656 24.285156 13.625 C 24.300781 13.652344 24.300781 13.679688 24.285156 13.710938 C 24.242188 13.792969 24.1875 13.894531 24.121094 14.015625 C 24.054688 14.132812 23.976562 14.257812 23.886719 14.386719 C 23.796875 14.511719 23.703125 14.640625 23.597656 14.765625 C 23.5 14.886719 23.386719 15 23.261719 15.097656 C 23.148438 15.1875 23.023438 15.261719 22.886719 15.320312 C 22.757812 15.375 22.625 15.394531 22.484375 15.382812 C 22.347656 15.375 22.234375 15.324219 22.132812 15.238281 C 22.039062 15.148438 21.972656 15.042969 21.933594 14.917969 C 21.890625 14.777344 21.878906 14.632812 21.894531 14.484375 C 21.90625 14.316406 21.949219 14.152344 22.011719 13.996094 C 22.085938 13.820312 22.179688 13.660156 22.296875 13.511719 C 22.421875 13.347656 22.574219 13.210938 22.746094 13.09375 C 22.8125 13.046875 22.882812 13.039062 22.957031 13.066406 C 23.03125 13.09375 23.09375 13.136719 23.140625 13.195312 C 23.191406 13.253906 23.21875 13.316406 23.222656 13.386719 C 23.230469 13.464844 23.199219 13.523438 23.128906 13.558594 C 22.90625 13.691406 22.742188 13.84375 22.640625 14.019531 C 22.539062 14.195312 22.488281 14.351562 22.480469 14.492188 C 22.476562 14.632812 22.511719 14.742188 22.59375 14.820312 C 22.671875 14.894531 22.78125 14.902344 22.921875 14.84375 C 23.042969 14.785156 23.144531 14.710938 23.234375 14.613281 C 23.347656 14.5 23.453125 14.378906 23.550781 14.25 C 23.648438 14.117188 23.746094 13.992188 23.832031 13.863281 Z M 24.039062 13.5625 " fill-opacity="1" fill-rule="nonzero"/><path fill="#fefff8" d="M 10.378906 13.285156 L 9.917969 13.507812 L 9.773438 12.972656 L 10.574219 12.542969 L 11.125 12.402344 L 11.125 15.089844 L 10.378906 15.28125 Z M 10.378906 13.285156 " fill-opacity="1" fill-rule="nonzero"/><path fill="#fefff8" d="M 12.8125 14.703125 C 12.617188 14.753906 12.441406 14.765625 12.285156 14.734375 C 12.136719 14.707031 12.003906 14.640625 11.890625 14.539062 C 11.777344 14.433594 11.691406 14.308594 11.640625 14.164062 C 11.578125 14 11.550781 13.828125 11.550781 13.652344 L 11.550781 13.644531 C 11.550781 13.453125 11.582031 13.269531 11.640625 13.085938 C 11.699219 12.90625 11.785156 12.734375 11.894531 12.578125 C 12.007812 12.421875 12.140625 12.289062 12.296875 12.175781 C 12.453125 12.058594 12.628906 11.976562 12.824219 11.925781 C 13.019531 11.875 13.191406 11.867188 13.347656 11.898438 C 13.5 11.929688 13.628906 11.992188 13.746094 12.09375 C 13.859375 12.199219 13.945312 12.324219 13.996094 12.46875 C 14.058594 12.632812 14.085938 12.804688 14.082031 12.980469 L 14.082031 12.988281 C 14.082031 13.175781 14.054688 13.363281 13.996094 13.546875 C 13.9375 13.726562 13.855469 13.898438 13.742188 14.054688 C 13.628906 14.210938 13.496094 14.34375 13.339844 14.457031 C 13.183594 14.574219 13.007812 14.65625 12.8125 14.703125 Z M 12.820312 14.046875 C 12.898438 14.027344 12.96875 13.992188 13.027344 13.941406 C 13.09375 13.886719 13.144531 13.820312 13.1875 13.75 C 13.230469 13.667969 13.265625 13.582031 13.285156 13.492188 C 13.3125 13.394531 13.324219 13.292969 13.320312 13.191406 L 13.320312 13.183594 C 13.324219 13.089844 13.3125 12.992188 13.285156 12.898438 C 13.265625 12.824219 13.230469 12.757812 13.179688 12.695312 C 13.140625 12.644531 13.085938 12.605469 13.019531 12.585938 C 12.953125 12.5625 12.882812 12.5625 12.8125 12.582031 C 12.738281 12.601562 12.667969 12.636719 12.609375 12.6875 C 12.546875 12.742188 12.492188 12.808594 12.449219 12.878906 C 12.402344 12.960938 12.371094 13.042969 12.347656 13.132812 C 12.324219 13.234375 12.3125 13.335938 12.3125 13.4375 L 12.3125 13.449219 C 12.3125 13.546875 12.324219 13.640625 12.351562 13.734375 C 12.371094 13.808594 12.40625 13.878906 12.453125 13.9375 C 12.496094 13.992188 12.550781 14.027344 12.613281 14.046875 C 12.683594 14.066406 12.753906 14.066406 12.820312 14.046875 Z M 12.820312 14.046875 " fill-opacity="1" fill-rule="nonzero"/><path fill="#fefff8" d="M 15.667969 13.964844 C 15.472656 14.015625 15.296875 14.027344 15.140625 13.996094 C 14.988281 13.964844 14.855469 13.902344 14.742188 13.800781 C 14.628906 13.695312 14.542969 13.566406 14.492188 13.421875 C 14.429688 13.257812 14.402344 13.089844 14.402344 12.914062 L 14.402344 12.90625 C 14.40625 12.714844 14.433594 12.527344 14.496094 12.347656 C 14.550781 12.164062 14.636719 11.992188 14.75 11.835938 C 14.859375 11.683594 14.992188 11.546875 15.148438 11.433594 C 15.304688 11.320312 15.480469 11.238281 15.675781 11.1875 C 15.871094 11.136719 16.042969 11.128906 16.199219 11.160156 C 16.351562 11.1875 16.480469 11.253906 16.597656 11.355469 C 16.710938 11.460938 16.796875 11.585938 16.847656 11.730469 C 16.910156 11.894531 16.9375 12.066406 16.9375 12.242188 L 16.9375 12.246094 C 16.9375 12.4375 16.90625 12.625 16.847656 12.804688 C 16.789062 12.988281 16.707031 13.15625 16.59375 13.3125 C 16.484375 13.46875 16.347656 13.601562 16.195312 13.71875 C 16.035156 13.832031 15.859375 13.914062 15.667969 13.964844 Z M 15.675781 13.308594 C 15.75 13.289062 15.820312 13.25 15.882812 13.199219 C 15.945312 13.144531 16 13.082031 16.039062 13.007812 C 16.085938 12.929688 16.117188 12.84375 16.140625 12.753906 C 16.164062 12.65625 16.175781 12.554688 16.175781 12.453125 L 16.175781 12.445312 C 16.175781 12.347656 16.164062 12.253906 16.136719 12.160156 C 16.117188 12.085938 16.082031 12.019531 16.035156 11.957031 C 15.992188 11.90625 15.9375 11.867188 15.875 11.847656 C 15.804688 11.824219 15.734375 11.824219 15.667969 11.847656 C 15.589844 11.867188 15.519531 11.902344 15.460938 11.953125 C 15.398438 12.007812 15.34375 12.070312 15.304688 12.140625 C 15.257812 12.222656 15.222656 12.308594 15.199219 12.398438 C 15.175781 12.496094 15.164062 12.597656 15.164062 12.699219 L 15.164062 12.707031 C 15.164062 12.804688 15.175781 12.898438 15.203125 12.992188 C 15.222656 13.070312 15.257812 13.136719 15.308594 13.199219 C 15.347656 13.25 15.402344 13.285156 15.46875 13.308594 C 15.535156 13.328125 15.605469 13.328125 15.675781 13.308594 Z M 15.675781 13.308594 " fill-opacity="1" fill-rule="nonzero"/><path fill="#fefff8" d="M 17.9375 12.054688 C 17.839844 12.082031 17.746094 12.085938 17.648438 12.074219 C 17.566406 12.0625 17.492188 12.027344 17.425781 11.976562 C 17.363281 11.925781 17.316406 11.863281 17.285156 11.789062 C 17.25 11.703125 17.230469 11.617188 17.234375 11.523438 L 17.234375 11.515625 C 17.234375 11.414062 17.25 11.316406 17.285156 11.222656 C 17.316406 11.128906 17.363281 11.039062 17.425781 10.960938 C 17.488281 10.878906 17.5625 10.808594 17.648438 10.746094 C 17.738281 10.6875 17.835938 10.640625 17.941406 10.613281 C 18.035156 10.585938 18.132812 10.582031 18.230469 10.597656 C 18.3125 10.609375 18.386719 10.644531 18.449219 10.695312 C 18.515625 10.746094 18.5625 10.808594 18.59375 10.882812 C 18.628906 10.96875 18.644531 11.054688 18.644531 11.144531 L 18.644531 11.152344 C 18.644531 11.253906 18.625 11.351562 18.59375 11.445312 C 18.558594 11.539062 18.511719 11.628906 18.449219 11.707031 C 18.382812 11.789062 18.308594 11.863281 18.222656 11.921875 C 18.136719 11.984375 18.039062 12.027344 17.9375 12.054688 Z M 19.644531 10.210938 L 20.171875 10.074219 L 18.0625 13.292969 L 17.535156 13.425781 Z M 17.941406 11.632812 C 18.011719 11.613281 18.066406 11.570312 18.105469 11.507812 C 18.148438 11.4375 18.167969 11.363281 18.167969 11.28125 L 18.167969 11.273438 C 18.171875 11.199219 18.148438 11.136719 18.101562 11.078125 C 18.058594 11.027344 18 11.015625 17.9375 11.035156 C 17.863281 11.054688 17.808594 11.097656 17.773438 11.164062 C 17.730469 11.230469 17.707031 11.308594 17.710938 11.386719 L 17.710938 11.394531 C 17.710938 11.480469 17.730469 11.546875 17.777344 11.59375 C 17.820312 11.640625 17.875 11.652344 17.941406 11.632812 Z M 19.765625 12.886719 C 19.667969 12.914062 19.574219 12.921875 19.476562 12.90625 C 19.394531 12.890625 19.320312 12.859375 19.253906 12.808594 C 19.191406 12.757812 19.144531 12.691406 19.113281 12.617188 C 19.078125 12.535156 19.058594 12.449219 19.0625 12.355469 L 19.0625 12.347656 C 19.0625 12.25 19.078125 12.152344 19.113281 12.058594 C 19.144531 11.960938 19.195312 11.875 19.253906 11.792969 C 19.316406 11.710938 19.390625 11.640625 19.476562 11.582031 C 19.566406 11.519531 19.664062 11.476562 19.769531 11.449219 C 19.863281 11.421875 19.960938 11.414062 20.058594 11.429688 C 20.140625 11.441406 20.214844 11.472656 20.277344 11.523438 C 20.34375 11.574219 20.390625 11.640625 20.421875 11.714844 C 20.457031 11.796875 20.472656 11.886719 20.472656 11.980469 L 20.472656 11.988281 C 20.472656 12.085938 20.453125 12.183594 20.421875 12.277344 C 20.386719 12.371094 20.339844 12.460938 20.277344 12.542969 C 20.214844 12.625 20.136719 12.695312 20.050781 12.753906 C 19.964844 12.816406 19.867188 12.859375 19.765625 12.886719 Z M 19.769531 12.46875 C 19.839844 12.449219 19.894531 12.40625 19.933594 12.339844 C 19.976562 12.269531 19.996094 12.195312 19.996094 12.113281 L 19.996094 12.105469 C 19.996094 12.019531 19.972656 11.957031 19.929688 11.910156 C 19.882812 11.863281 19.828125 11.847656 19.765625 11.871094 C 19.691406 11.890625 19.636719 11.929688 19.597656 11.996094 C 19.558594 12.066406 19.535156 12.140625 19.539062 12.222656 L 19.539062 12.230469 C 19.535156 12.304688 19.554688 12.367188 19.605469 12.425781 C 19.648438 12.472656 19.703125 12.488281 19.769531 12.46875 Z M 19.769531 12.46875 " fill-opacity="1" fill-rule="nonzero"/><path fill="#9aaf23" d="M 22.5 10.375 C 22.128906 10.917969 21.582031 11.285156 21.035156 11.421875 C 20.921875 10.929688 21.042969 10.332031 21.414062 9.789062 C 21.785156 9.25 22.332031 8.878906 22.878906 8.746094 C 22.992188 9.234375 22.871094 9.832031 22.5 10.375 Z M 22.5 10.375 " fill-opacity="1" fill-rule="nonzero"/><path fill="#9aaf23" d="M 22.351562 12.160156 C 21.914062 12.199219 21.558594 12.023438 21.363281 11.722656 C 21.671875 11.375 22.097656 11.132812 22.53125 11.09375 C 22.96875 11.058594 23.324219 11.230469 23.523438 11.53125 C 23.214844 11.878906 22.789062 12.121094 22.351562 12.160156 Z M 22.351562 12.160156 " fill-opacity="1" fill-rule="nonzero"/><path fill="#9aaf23" d="M 7.851562 14.171875 C 8.226562 14.519531 8.769531 14.605469 9.316406 14.460938 C 9.433594 13.90625 9.3125 13.371094 8.9375 13.023438 C 8.566406 12.675781 8.023438 12.589844 7.476562 12.734375 C 7.359375 13.289062 7.480469 13.824219 7.851562 14.171875 Z M 7.851562 14.171875 " fill-opacity="1" fill-rule="nonzero"/><path fill="#9aaf23" d="M 8 15.878906 C 8.449219 15.679688 8.777344 15.363281 8.988281 14.929688 C 8.679688 14.742188 8.253906 14.722656 7.820312 14.910156 C 7.371094 15.109375 7.039062 15.425781 6.828125 15.859375 C 7.136719 16.046875 7.5625 16.066406 8 15.878906 Z M 8 15.878906 " fill-opacity="1" fill-rule="nonzero"/></svg>